<mxfile host="65bd71144e">
    <diagram id="shdnCje5mq_f78LJZioB" name="第 1 页">
        <mxGraphModel dx="579" dy="151" grid="1" gridSize="10" guides="1" tooltips="1" connect="1" arrows="1" fold="1" page="1" pageScale="1" pageWidth="630" pageHeight="390" math="0" shadow="0">
            <root>
                <mxCell id="0"/>
                <mxCell id="1" parent="0"/>
                <mxCell id="2" value="" style="sketch=0;points=[[0.015,0.015,0],[0.985,0.015,0],[0.985,0.985,0],[0.015,0.985,0],[0.25,0,0],[0.5,0,0],[0.75,0,0],[1,0.25,0],[1,0.5,0],[1,0.75,0],[0.75,1,0],[0.5,1,0],[0.25,1,0],[0,0.75,0],[0,0.5,0],[0,0.25,0]];verticalLabelPosition=bottom;html=1;verticalAlign=top;aspect=fixed;align=center;pointerEvents=1;shape=mxgraph.cisco19.rect;prIcon=virtual_private_network_connector;fillColor=#FAFAFA;strokeColor=#005073;rotation=-90;fontFamily=Bahnschrift;" parent="1" vertex="1">
                    <mxGeometry x="554.75" y="637" width="64" height="50" as="geometry"/>
                </mxCell>
                <mxCell id="3" value="" style="sketch=0;points=[[0.015,0.015,0],[0.985,0.015,0],[0.985,0.985,0],[0.015,0.985,0],[0.25,0,0],[0.5,0,0],[0.75,0,0],[1,0.25,0],[1,0.5,0],[1,0.75,0],[0.75,1,0],[0.5,1,0],[0.25,1,0],[0,0.75,0],[0,0.5,0],[0,0.25,0]];verticalLabelPosition=bottom;html=1;verticalAlign=top;aspect=fixed;align=center;pointerEvents=1;shape=mxgraph.cisco19.rect;prIcon=virtual_private_network_connector;fillColor=#FAFAFA;strokeColor=#005073;rotation=-90;fontFamily=Bahnschrift;" parent="1" vertex="1">
                    <mxGeometry x="475.25" y="637" width="64" height="50" as="geometry"/>
                </mxCell>
                <mxCell id="4" value="" style="sketch=0;points=[[0.015,0.015,0],[0.985,0.015,0],[0.985,0.985,0],[0.015,0.985,0],[0.25,0,0],[0.5,0,0],[0.75,0,0],[1,0.25,0],[1,0.5,0],[1,0.75,0],[0.75,1,0],[0.5,1,0],[0.25,1,0],[0,0.75,0],[0,0.5,0],[0,0.25,0]];verticalLabelPosition=bottom;html=1;verticalAlign=top;aspect=fixed;align=center;pointerEvents=1;shape=mxgraph.cisco19.rect;prIcon=virtual_private_network_connector;fillColor=none;strokeColor=#005073;rotation=-90;fontFamily=Bahnschrift;" parent="1" vertex="1">
                    <mxGeometry x="325.25" y="637" width="64" height="50" as="geometry"/>
                </mxCell>
                <mxCell id="5" value="" style="sketch=0;points=[[0.015,0.015,0],[0.985,0.015,0],[0.985,0.985,0],[0.015,0.985,0],[0.25,0,0],[0.5,0,0],[0.75,0,0],[1,0.25,0],[1,0.5,0],[1,0.75,0],[0.75,1,0],[0.5,1,0],[0.25,1,0],[0,0.75,0],[0,0.5,0],[0,0.25,0]];verticalLabelPosition=bottom;html=1;verticalAlign=top;aspect=fixed;align=center;pointerEvents=1;shape=mxgraph.cisco19.rect;prIcon=virtual_private_network_connector;fillColor=#FAFAFA;strokeColor=#005073;rotation=-90;fontFamily=Bahnschrift;" parent="1" vertex="1">
                    <mxGeometry x="245.25" y="637" width="64" height="50" as="geometry"/>
                </mxCell>
                <mxCell id="6" value="" style="sketch=0;points=[[0.015,0.015,0],[0.985,0.015,0],[0.985,0.985,0],[0.015,0.985,0],[0.25,0,0],[0.5,0,0],[0.75,0,0],[1,0.25,0],[1,0.5,0],[1,0.75,0],[0.75,1,0],[0.5,1,0],[0.25,1,0],[0,0.75,0],[0,0.5,0],[0,0.25,0]];verticalLabelPosition=bottom;html=1;verticalAlign=top;aspect=fixed;align=center;pointerEvents=1;shape=mxgraph.cisco19.rect;prIcon=virtual_private_network_connector;fillColor=#FAFAFA;strokeColor=#005073;rotation=-90;fontFamily=Bahnschrift;" parent="1" vertex="1">
                    <mxGeometry x="11.869999999999997" y="637" width="64" height="50" as="geometry"/>
                </mxCell>
                <mxCell id="7" value="" style="sketch=0;points=[[0.015,0.015,0],[0.985,0.015,0],[0.985,0.985,0],[0.015,0.985,0],[0.25,0,0],[0.5,0,0],[0.75,0,0],[1,0.25,0],[1,0.5,0],[1,0.75,0],[0.75,1,0],[0.5,1,0],[0.25,1,0],[0,0.75,0],[0,0.5,0],[0,0.25,0]];verticalLabelPosition=bottom;html=1;verticalAlign=top;aspect=fixed;align=center;pointerEvents=1;shape=mxgraph.cisco19.rect;prIcon=virtual_private_network_connector;fillColor=#FAFAFA;strokeColor=#005073;rotation=-90;fontFamily=Bahnschrift;" parent="1" vertex="1">
                    <mxGeometry x="88.37" y="637" width="64" height="50" as="geometry"/>
                </mxCell>
                <mxCell id="8" value="" style="image;html=1;image=img/lib/clip_art/networking/Cloud_128x128.png;fontFamily=Bahnschrift;" parent="1" vertex="1">
                    <mxGeometry x="253.68" y="423" width="118.88" height="85" as="geometry"/>
                </mxCell>
                <mxCell id="9" value="" style="outlineConnect=0;dashed=0;verticalLabelPosition=bottom;verticalAlign=top;align=center;html=1;shape=mxgraph.aws3.windfarm;fillColor=#5294CF;gradientColor=none;fontSize=12;fontFamily=Bahnschrift;" parent="1" vertex="1">
                    <mxGeometry x="80.62" y="687" width="79.5" height="79.5" as="geometry"/>
                </mxCell>
                <mxCell id="10" value="" style="outlineConnect=0;dashed=0;verticalLabelPosition=bottom;verticalAlign=top;align=center;html=1;shape=mxgraph.aws3.house;fillColor=#5294CF;gradientColor=none;fontSize=12;fontFamily=Bahnschrift;" parent="1" vertex="1">
                    <mxGeometry x="237.5" y="687" width="79.5" height="79.5" as="geometry"/>
                </mxCell>
                <mxCell id="11" value="" style="outlineConnect=0;dashed=0;verticalLabelPosition=bottom;verticalAlign=top;align=center;html=1;shape=mxgraph.aws3.cart;fillColor=#5294CF;gradientColor=none;fontSize=12;fontFamily=Bahnschrift;" parent="1" vertex="1">
                    <mxGeometry x="317.5" y="687" width="79.5" height="79.5" as="geometry"/>
                </mxCell>
                <mxCell id="12" value="" style="outlineConnect=0;dashed=0;verticalLabelPosition=bottom;verticalAlign=top;align=center;html=1;shape=mxgraph.aws3.car;fillColor=#5294CF;gradientColor=none;fontSize=12;fontFamily=Bahnschrift;" parent="1" vertex="1">
                    <mxGeometry x="467.5" y="687" width="79.5" height="79.5" as="geometry"/>
                </mxCell>
                <mxCell id="13" value="" style="outlineConnect=0;dashed=0;verticalLabelPosition=bottom;verticalAlign=top;align=center;html=1;shape=mxgraph.aws3.travel;fillColor=#5294CF;gradientColor=none;fontSize=12;fontFamily=Bahnschrift;" parent="1" vertex="1">
                    <mxGeometry x="2.999999999999993" y="687" width="79.5" height="79.5" as="geometry"/>
                </mxCell>
                <mxCell id="14" value="" style="outlineConnect=0;dashed=0;verticalLabelPosition=bottom;verticalAlign=top;align=center;html=1;shape=mxgraph.aws3.thermostat;fillColor=#5294CF;gradientColor=none;fontSize=12;fontFamily=Bahnschrift;" parent="1" vertex="1">
                    <mxGeometry x="547" y="687" width="79.5" height="79.5" as="geometry"/>
                </mxCell>
                <mxCell id="15" value="" style="aspect=fixed;perimeter=ellipsePerimeter;html=1;align=center;shadow=0;dashed=0;spacingTop=3;image;image=img/lib/active_directory/internet_cloud.svg;fontSize=12;fontFamily=Bahnschrift;" parent="1" vertex="1">
                    <mxGeometry x="2.3599999999999923" y="547" width="159.52" height="100.5" as="geometry"/>
                </mxCell>
                <mxCell id="16" value="" style="aspect=fixed;perimeter=ellipsePerimeter;html=1;align=center;shadow=0;dashed=0;spacingTop=3;image;image=img/lib/active_directory/internet_cloud.svg;fontSize=12;fontFamily=Bahnschrift;" parent="1" vertex="1">
                    <mxGeometry x="239.5" y="547" width="159.52" height="100.5" as="geometry"/>
                </mxCell>
                <mxCell id="17" value="" style="aspect=fixed;perimeter=ellipsePerimeter;html=1;align=center;shadow=0;dashed=0;spacingTop=3;image;image=img/lib/active_directory/internet_cloud.svg;fontSize=12;fontFamily=Bahnschrift;" parent="1" vertex="1">
                    <mxGeometry x="470.36" y="547" width="159.52" height="100.5" as="geometry"/>
                </mxCell>
                <mxCell id="19" value="" style="shape=flexArrow;endArrow=classic;html=1;fontSize=12;fillColor=#f8cecc;strokeColor=#b85450;fontFamily=Bahnschrift;" parent="1" edge="1">
                    <mxGeometry width="50" height="50" relative="1" as="geometry">
                        <mxPoint x="90" y="567" as="sourcePoint"/>
                        <mxPoint x="162.12" y="504" as="targetPoint"/>
                    </mxGeometry>
                </mxCell>
                <mxCell id="20" value="action" style="edgeLabel;html=1;align=center;verticalAlign=middle;resizable=0;points=[];fontSize=12;fontFamily=Bahnschrift;" parent="19" vertex="1" connectable="0">
                    <mxGeometry x="-0.3448" y="-1" relative="1" as="geometry">
                        <mxPoint y="-8" as="offset"/>
                    </mxGeometry>
                </mxCell>
                <mxCell id="21" value="" style="shape=flexArrow;endArrow=classic;html=1;fontSize=12;fillColor=#dae8fc;strokeColor=#6c8ebf;fontFamily=Bahnschrift;" parent="1" edge="1">
                    <mxGeometry width="50" height="50" relative="1" as="geometry">
                        <mxPoint x="199.37" y="515" as="sourcePoint"/>
                        <mxPoint x="129.37" y="575" as="targetPoint"/>
                    </mxGeometry>
                </mxCell>
                <mxCell id="22" value="update" style="edgeLabel;html=1;align=center;verticalAlign=middle;resizable=0;points=[];fontSize=12;fontFamily=Bahnschrift;" parent="21" vertex="1" connectable="0">
                    <mxGeometry x="-0.4725" y="1" relative="1" as="geometry">
                        <mxPoint y="-8" as="offset"/>
                    </mxGeometry>
                </mxCell>
                <mxCell id="23" value="" style="shape=flexArrow;endArrow=classic;html=1;fontSize=12;fillColor=#dae8fc;strokeColor=#6c8ebf;fontFamily=Bahnschrift;entryX=1;entryY=0;entryDx=0;entryDy=0;" parent="1" edge="1" target="133">
                    <mxGeometry width="50" height="50" relative="1" as="geometry">
                        <mxPoint x="327.38" y="512" as="sourcePoint"/>
                        <mxPoint x="327.2500000000001" y="582" as="targetPoint"/>
                    </mxGeometry>
                </mxCell>
                <mxCell id="24" value="update" style="edgeLabel;html=1;align=center;verticalAlign=middle;resizable=0;points=[];fontSize=12;fontFamily=Bahnschrift;" parent="23" vertex="1" connectable="0">
                    <mxGeometry x="-0.5607" y="-1" relative="1" as="geometry">
                        <mxPoint as="offset"/>
                    </mxGeometry>
                </mxCell>
                <mxCell id="25" value="" style="shape=flexArrow;endArrow=classic;html=1;fontSize=12;fillColor=#f8cecc;strokeColor=#b85450;fontFamily=Bahnschrift;exitX=0.386;exitY=-0.073;exitDx=0;exitDy=0;exitPerimeter=0;" parent="1" edge="1" source="133">
                    <mxGeometry width="50" height="50" relative="1" as="geometry">
                        <mxPoint x="296.12" y="582" as="sourcePoint"/>
                        <mxPoint x="296.12" y="512" as="targetPoint"/>
                    </mxGeometry>
                </mxCell>
                <mxCell id="26" value="action" style="edgeLabel;html=1;align=center;verticalAlign=middle;resizable=0;points=[];fontSize=12;fontFamily=Bahnschrift;" parent="25" vertex="1" connectable="0">
                    <mxGeometry x="-0.4214" relative="1" as="geometry">
                        <mxPoint y="-8" as="offset"/>
                    </mxGeometry>
                </mxCell>
                <mxCell id="27" value="" style="shape=flexArrow;endArrow=classic;html=1;fontSize=12;fillColor=#f8cecc;strokeColor=#b85450;fontFamily=Bahnschrift;" parent="1" edge="1">
                    <mxGeometry width="50" height="50" relative="1" as="geometry">
                        <mxPoint x="551.7500000000001" y="564" as="sourcePoint"/>
                        <mxPoint x="471.7500000000001" y="504" as="targetPoint"/>
                    </mxGeometry>
                </mxCell>
                <mxCell id="28" value="action" style="edgeLabel;html=1;align=center;verticalAlign=middle;resizable=0;points=[];fontSize=12;fontFamily=Bahnschrift;" parent="27" vertex="1" connectable="0">
                    <mxGeometry x="-0.5015" y="-1" relative="1" as="geometry">
                        <mxPoint y="-8" as="offset"/>
                    </mxGeometry>
                </mxCell>
                <mxCell id="29" value="" style="shape=flexArrow;endArrow=classic;html=1;fontSize=12;fillColor=#dae8fc;strokeColor=#6c8ebf;fontFamily=Bahnschrift;" parent="1" edge="1">
                    <mxGeometry width="50" height="50" relative="1" as="geometry">
                        <mxPoint x="433.2500000000001" y="515" as="sourcePoint"/>
                        <mxPoint x="513.2500000000001" y="575" as="targetPoint"/>
                    </mxGeometry>
                </mxCell>
                <mxCell id="155" value="&lt;span style=&quot;font-size: 12px&quot;&gt;update&amp;nbsp;&lt;/span&gt;" style="edgeLabel;html=1;align=center;verticalAlign=middle;resizable=0;points=[];fontFamily=Bahnschrift;" vertex="1" connectable="0" parent="29">
                    <mxGeometry x="-0.6555" y="2" relative="1" as="geometry">
                        <mxPoint as="offset"/>
                    </mxGeometry>
                </mxCell>
                <mxCell id="31" value="" style="endArrow=none;dashed=1;html=1;fontSize=12;fontFamily=Bahnschrift;" parent="1" edge="1">
                    <mxGeometry width="50" height="50" relative="1" as="geometry">
                        <mxPoint x="13.119999999999997" y="512" as="sourcePoint"/>
                        <mxPoint x="623.12" y="512" as="targetPoint"/>
                    </mxGeometry>
                </mxCell>
                <mxCell id="32" value="Central server" style="text;html=1;align=center;verticalAlign=middle;resizable=0;points=[];autosize=1;strokeColor=none;fillColor=none;fontSize=12;fontFamily=Bahnschrift;" parent="1" vertex="1">
                    <mxGeometry x="268.12" y="401" width="90" height="20" as="geometry"/>
                </mxCell>
                <mxCell id="33" value="" style="ellipse;whiteSpace=wrap;html=1;aspect=fixed;fontSize=12;fillColor=#f8cecc;strokeColor=#b85450;fontFamily=Bahnschrift;" parent="1" vertex="1">
                    <mxGeometry x="84.38999999999999" y="434" width="15" height="15" as="geometry"/>
                </mxCell>
                <mxCell id="34" value="" style="ellipse;whiteSpace=wrap;html=1;aspect=fixed;fontSize=12;fillColor=#f8cecc;strokeColor=#b85450;fontFamily=Bahnschrift;" parent="1" vertex="1">
                    <mxGeometry x="84.38999999999999" y="474" width="15" height="15" as="geometry"/>
                </mxCell>
                <mxCell id="35" value="" style="ellipse;whiteSpace=wrap;html=1;aspect=fixed;fontSize=12;fillColor=#f8cecc;strokeColor=#b85450;fontFamily=Bahnschrift;" parent="1" vertex="1">
                    <mxGeometry x="84.38999999999999" y="454" width="15" height="15" as="geometry"/>
                </mxCell>
                <mxCell id="36" value="" style="ellipse;whiteSpace=wrap;html=1;aspect=fixed;fontSize=12;fillColor=#dae8fc;strokeColor=#6c8ebf;fontFamily=Bahnschrift;" parent="1" vertex="1">
                    <mxGeometry x="119.12" y="482" width="15" height="15" as="geometry"/>
                </mxCell>
                <mxCell id="37" value="" style="ellipse;whiteSpace=wrap;html=1;aspect=fixed;fontSize=12;fillColor=#dae8fc;strokeColor=#6c8ebf;fontFamily=Bahnschrift;" parent="1" vertex="1">
                    <mxGeometry x="119.12" y="462" width="15" height="15" as="geometry"/>
                </mxCell>
                <mxCell id="38" value="" style="ellipse;whiteSpace=wrap;html=1;aspect=fixed;fontSize=12;fillColor=#dae8fc;strokeColor=#6c8ebf;fontFamily=Bahnschrift;" parent="1" vertex="1">
                    <mxGeometry x="119.12" y="442" width="15" height="15" as="geometry"/>
                </mxCell>
                <mxCell id="39" value="" style="ellipse;whiteSpace=wrap;html=1;aspect=fixed;fontSize=12;fillColor=#dae8fc;strokeColor=#6c8ebf;fontFamily=Bahnschrift;" parent="1" vertex="1">
                    <mxGeometry x="119.12" y="422" width="15" height="15" as="geometry"/>
                </mxCell>
                <mxCell id="40" value="" style="ellipse;whiteSpace=wrap;html=1;aspect=fixed;fontSize=12;fillColor=#647687;fontColor=#ffffff;strokeColor=#314354;fontFamily=Bahnschrift;" parent="1" vertex="1">
                    <mxGeometry x="152.12" y="434" width="15" height="15" as="geometry"/>
                </mxCell>
                <mxCell id="41" value="" style="ellipse;whiteSpace=wrap;html=1;aspect=fixed;fontSize=12;fillColor=#647687;fontColor=#ffffff;strokeColor=#314354;fontFamily=Bahnschrift;" parent="1" vertex="1">
                    <mxGeometry x="152.12" y="474" width="15" height="15" as="geometry"/>
                </mxCell>
                <mxCell id="42" value="" style="ellipse;whiteSpace=wrap;html=1;aspect=fixed;fontSize=12;fillColor=#647687;fontColor=#ffffff;strokeColor=#314354;fontFamily=Bahnschrift;" parent="1" vertex="1">
                    <mxGeometry x="152.12" y="454" width="15" height="15" as="geometry"/>
                </mxCell>
                <mxCell id="43" value="" style="endArrow=none;html=1;fontSize=12;strokeColor=default;entryX=0;entryY=0.5;entryDx=0;entryDy=0;exitX=1;exitY=0.5;exitDx=0;exitDy=0;fontFamily=Bahnschrift;" parent="1" source="33" target="39" edge="1">
                    <mxGeometry width="50" height="50" relative="1" as="geometry">
                        <mxPoint x="99.38999999999999" y="439" as="sourcePoint"/>
                        <mxPoint x="149.39" y="389" as="targetPoint"/>
                    </mxGeometry>
                </mxCell>
                <mxCell id="44" value="" style="endArrow=none;html=1;fontSize=12;strokeColor=default;exitX=1;exitY=0.5;exitDx=0;exitDy=0;fontFamily=Bahnschrift;" parent="1" source="35" edge="1">
                    <mxGeometry width="50" height="50" relative="1" as="geometry">
                        <mxPoint x="99.38999999999999" y="467" as="sourcePoint"/>
                        <mxPoint x="119.12" y="449" as="targetPoint"/>
                    </mxGeometry>
                </mxCell>
                <mxCell id="45" value="" style="endArrow=none;html=1;fontSize=12;strokeColor=default;exitX=1;exitY=0.5;exitDx=0;exitDy=0;entryX=0;entryY=0.5;entryDx=0;entryDy=0;fontFamily=Bahnschrift;" parent="1" source="34" target="37" edge="1">
                    <mxGeometry width="50" height="50" relative="1" as="geometry">
                        <mxPoint x="109.12" y="483" as="sourcePoint"/>
                        <mxPoint x="128.85000000000002" y="474" as="targetPoint"/>
                    </mxGeometry>
                </mxCell>
                <mxCell id="46" value="" style="endArrow=none;html=1;fontSize=12;strokeColor=default;entryX=0;entryY=0.5;entryDx=0;entryDy=0;exitX=1;exitY=0.5;exitDx=0;exitDy=0;fontFamily=Bahnschrift;" parent="1" source="33" target="38" edge="1">
                    <mxGeometry width="50" height="50" relative="1" as="geometry">
                        <mxPoint x="99.38999999999999" y="428.75" as="sourcePoint"/>
                        <mxPoint x="119.11999999999739" y="419.25" as="targetPoint"/>
                    </mxGeometry>
                </mxCell>
                <mxCell id="47" value="" style="endArrow=none;html=1;fontSize=12;strokeColor=default;entryX=0;entryY=0.5;entryDx=0;entryDy=0;fontFamily=Bahnschrift;" parent="1" target="40" edge="1">
                    <mxGeometry width="50" height="50" relative="1" as="geometry">
                        <mxPoint x="134.12" y="449" as="sourcePoint"/>
                        <mxPoint x="153.8499999999974" y="439.5" as="targetPoint"/>
                    </mxGeometry>
                </mxCell>
                <mxCell id="48" value="" style="endArrow=none;html=1;fontSize=12;strokeColor=default;entryX=0;entryY=0.5;entryDx=0;entryDy=0;fontFamily=Bahnschrift;" parent="1" target="42" edge="1">
                    <mxGeometry width="50" height="50" relative="1" as="geometry">
                        <mxPoint x="134.12" y="469" as="sourcePoint"/>
                        <mxPoint x="153.8499999999974" y="459.5" as="targetPoint"/>
                    </mxGeometry>
                </mxCell>
                <mxCell id="49" value="" style="endArrow=none;html=1;fontSize=12;strokeColor=default;entryX=0;entryY=0.5;entryDx=0;entryDy=0;fontFamily=Bahnschrift;" parent="1" target="41" edge="1">
                    <mxGeometry width="50" height="50" relative="1" as="geometry">
                        <mxPoint x="134.12" y="489" as="sourcePoint"/>
                        <mxPoint x="153.8499999999974" y="479.5" as="targetPoint"/>
                    </mxGeometry>
                </mxCell>
                <mxCell id="50" value="" style="endArrow=none;html=1;fontSize=12;strokeColor=default;exitX=0;exitY=0.5;exitDx=0;exitDy=0;jumpStyle=arc;fontFamily=Bahnschrift;" parent="1" source="37" edge="1">
                    <mxGeometry width="50" height="50" relative="1" as="geometry">
                        <mxPoint x="119.92999999999995" y="454" as="sourcePoint"/>
                        <mxPoint x="99.38999999999999" y="441" as="targetPoint"/>
                    </mxGeometry>
                </mxCell>
                <mxCell id="51" value="" style="endArrow=none;html=1;fontSize=12;strokeColor=default;jumpStyle=arc;entryX=1;entryY=0.5;entryDx=0;entryDy=0;exitX=0;exitY=0.5;exitDx=0;exitDy=0;fontFamily=Bahnschrift;" parent="1" source="36" target="33" edge="1">
                    <mxGeometry width="50" height="50" relative="1" as="geometry">
                        <mxPoint x="49.12" y="464" as="sourcePoint"/>
                        <mxPoint x="99.12" y="414" as="targetPoint"/>
                    </mxGeometry>
                </mxCell>
                <mxCell id="52" value="" style="endArrow=none;html=1;fontSize=12;strokeColor=default;jumpStyle=arc;entryX=0;entryY=0.5;entryDx=0;entryDy=0;fontFamily=Bahnschrift;" parent="1" target="37" edge="1">
                    <mxGeometry width="50" height="50" relative="1" as="geometry">
                        <mxPoint x="99.38999999999999" y="462" as="sourcePoint"/>
                        <mxPoint x="109.38999999999999" y="472" as="targetPoint"/>
                    </mxGeometry>
                </mxCell>
                <mxCell id="53" value="" style="endArrow=none;html=1;fontSize=12;strokeColor=default;entryX=0;entryY=0.5;entryDx=0;entryDy=0;jumpStyle=arc;fontFamily=Bahnschrift;" parent="1" target="42" edge="1">
                    <mxGeometry width="50" height="50" relative="1" as="geometry">
                        <mxPoint x="134.12" y="428.75" as="sourcePoint"/>
                        <mxPoint x="153.8499999999974" y="419.25" as="targetPoint"/>
                    </mxGeometry>
                </mxCell>
                <mxCell id="54" value="" style="endArrow=none;html=1;fontSize=12;strokeColor=default;entryX=0;entryY=0.5;entryDx=0;entryDy=0;fontFamily=Bahnschrift;" parent="1" target="40" edge="1">
                    <mxGeometry width="50" height="50" relative="1" as="geometry">
                        <mxPoint x="134.12" y="428.75" as="sourcePoint"/>
                        <mxPoint x="153.8499999999974" y="419.25" as="targetPoint"/>
                    </mxGeometry>
                </mxCell>
                <mxCell id="55" value="" style="endArrow=none;html=1;fontSize=12;strokeColor=default;jumpStyle=arc;entryX=-0.005;entryY=0.55;entryDx=0;entryDy=0;entryPerimeter=0;fontFamily=Bahnschrift;" parent="1" target="36" edge="1">
                    <mxGeometry width="50" height="50" relative="1" as="geometry">
                        <mxPoint x="99.38999999999999" y="462" as="sourcePoint"/>
                        <mxPoint x="109.38999999999999" y="472" as="targetPoint"/>
                    </mxGeometry>
                </mxCell>
                <mxCell id="56" value="" style="endArrow=none;html=1;fontSize=12;strokeColor=default;jumpStyle=arc;entryX=0;entryY=0.5;entryDx=0;entryDy=0;fontFamily=Bahnschrift;" parent="1" target="39" edge="1">
                    <mxGeometry width="50" height="50" relative="1" as="geometry">
                        <mxPoint x="99.38999999999999" y="482" as="sourcePoint"/>
                        <mxPoint x="109.38999999999999" y="492" as="targetPoint"/>
                    </mxGeometry>
                </mxCell>
                <mxCell id="57" value="" style="endArrow=none;html=1;fontSize=12;strokeColor=default;jumpStyle=arc;entryX=0;entryY=0.5;entryDx=0;entryDy=0;fontFamily=Bahnschrift;" parent="1" target="36" edge="1">
                    <mxGeometry width="50" height="50" relative="1" as="geometry">
                        <mxPoint x="99.38999999999999" y="482" as="sourcePoint"/>
                        <mxPoint x="109.38999999999999" y="492" as="targetPoint"/>
                    </mxGeometry>
                </mxCell>
                <mxCell id="58" value="" style="endArrow=none;html=1;fontSize=12;strokeColor=default;jumpStyle=arc;entryX=0;entryY=0.5;entryDx=0;entryDy=0;fontFamily=Bahnschrift;" parent="1" target="38" edge="1">
                    <mxGeometry width="50" height="50" relative="1" as="geometry">
                        <mxPoint x="99.38999999999999" y="482" as="sourcePoint"/>
                        <mxPoint x="109.38999999999999" y="492" as="targetPoint"/>
                    </mxGeometry>
                </mxCell>
                <mxCell id="59" value="" style="endArrow=none;html=1;fontSize=12;strokeColor=default;jumpStyle=arc;entryX=0;entryY=0.5;entryDx=0;entryDy=0;fontFamily=Bahnschrift;" parent="1" target="39" edge="1">
                    <mxGeometry width="50" height="50" relative="1" as="geometry">
                        <mxPoint x="99.38999999999999" y="462" as="sourcePoint"/>
                        <mxPoint x="109.38999999999999" y="472" as="targetPoint"/>
                    </mxGeometry>
                </mxCell>
                <mxCell id="60" value="" style="endArrow=none;html=1;fontSize=12;strokeColor=default;entryX=0;entryY=0.5;entryDx=0;entryDy=0;exitX=1;exitY=0.5;exitDx=0;exitDy=0;jumpStyle=arc;fontFamily=Bahnschrift;" parent="1" source="39" target="41" edge="1">
                    <mxGeometry width="50" height="50" relative="1" as="geometry">
                        <mxPoint x="149.76" y="431.5" as="sourcePoint"/>
                        <mxPoint x="169.4899999999974" y="422" as="targetPoint"/>
                    </mxGeometry>
                </mxCell>
                <mxCell id="61" value="" style="endArrow=none;html=1;fontSize=12;strokeColor=default;entryX=0;entryY=0.5;entryDx=0;entryDy=0;jumpStyle=arc;fontFamily=Bahnschrift;" parent="1" target="42" edge="1">
                    <mxGeometry width="50" height="50" relative="1" as="geometry">
                        <mxPoint x="134.12" y="449" as="sourcePoint"/>
                        <mxPoint x="153.8499999999974" y="439.5" as="targetPoint"/>
                    </mxGeometry>
                </mxCell>
                <mxCell id="62" value="" style="endArrow=none;html=1;fontSize=12;strokeColor=default;entryX=0;entryY=0.5;entryDx=0;entryDy=0;jumpStyle=arc;fontFamily=Bahnschrift;" parent="1" target="41" edge="1">
                    <mxGeometry width="50" height="50" relative="1" as="geometry">
                        <mxPoint x="134.12" y="449" as="sourcePoint"/>
                        <mxPoint x="153.8499999999974" y="439.5" as="targetPoint"/>
                    </mxGeometry>
                </mxCell>
                <mxCell id="63" value="" style="endArrow=none;html=1;fontSize=12;strokeColor=default;jumpStyle=arc;entryX=0;entryY=0.5;entryDx=0;entryDy=0;fontFamily=Bahnschrift;" parent="1" target="40" edge="1">
                    <mxGeometry width="50" height="50" relative="1" as="geometry">
                        <mxPoint x="134.12" y="469" as="sourcePoint"/>
                        <mxPoint x="179.12" y="474" as="targetPoint"/>
                    </mxGeometry>
                </mxCell>
                <mxCell id="64" value="" style="endArrow=none;html=1;fontSize=12;strokeColor=default;entryX=1;entryY=0.5;entryDx=0;entryDy=0;jumpStyle=arc;exitX=0;exitY=0.5;exitDx=0;exitDy=0;fontFamily=Bahnschrift;" parent="1" source="41" target="37" edge="1">
                    <mxGeometry width="50" height="50" relative="1" as="geometry">
                        <mxPoint x="189.39" y="474" as="sourcePoint"/>
                        <mxPoint x="209.11999999999745" y="464.5" as="targetPoint"/>
                    </mxGeometry>
                </mxCell>
                <mxCell id="65" value="" style="endArrow=none;html=1;fontSize=12;strokeColor=default;entryX=0;entryY=0.5;entryDx=0;entryDy=0;jumpStyle=arc;fontFamily=Bahnschrift;" parent="1" target="40" edge="1">
                    <mxGeometry width="50" height="50" relative="1" as="geometry">
                        <mxPoint x="134.12" y="489" as="sourcePoint"/>
                        <mxPoint x="153.84999999999746" y="479.5" as="targetPoint"/>
                    </mxGeometry>
                </mxCell>
                <mxCell id="66" value="" style="endArrow=none;html=1;fontSize=12;strokeColor=default;entryX=0;entryY=0.5;entryDx=0;entryDy=0;jumpStyle=arc;exitX=1;exitY=0.5;exitDx=0;exitDy=0;fontFamily=Bahnschrift;" parent="1" source="36" target="42" edge="1">
                    <mxGeometry width="50" height="50" relative="1" as="geometry">
                        <mxPoint x="144.12" y="499" as="sourcePoint"/>
                        <mxPoint x="162.11999999999955" y="451.5" as="targetPoint"/>
                    </mxGeometry>
                </mxCell>
                <mxCell id="67" value="" style="ellipse;whiteSpace=wrap;html=1;aspect=fixed;fontSize=12;fillColor=#f8cecc;strokeColor=#b85450;fontFamily=Bahnschrift;" parent="1" vertex="1">
                    <mxGeometry x="465.39" y="434" width="15" height="15" as="geometry"/>
                </mxCell>
                <mxCell id="68" value="" style="ellipse;whiteSpace=wrap;html=1;aspect=fixed;fontSize=12;fillColor=#f8cecc;strokeColor=#b85450;fontFamily=Bahnschrift;" parent="1" vertex="1">
                    <mxGeometry x="465.39" y="474" width="15" height="15" as="geometry"/>
                </mxCell>
                <mxCell id="69" value="" style="ellipse;whiteSpace=wrap;html=1;aspect=fixed;fontSize=12;fillColor=#f8cecc;strokeColor=#b85450;fontFamily=Bahnschrift;" parent="1" vertex="1">
                    <mxGeometry x="465.39" y="454" width="15" height="15" as="geometry"/>
                </mxCell>
                <mxCell id="70" value="" style="ellipse;whiteSpace=wrap;html=1;aspect=fixed;fontSize=12;fillColor=#dae8fc;strokeColor=#6c8ebf;fontFamily=Bahnschrift;" parent="1" vertex="1">
                    <mxGeometry x="500.12" y="482" width="15" height="15" as="geometry"/>
                </mxCell>
                <mxCell id="71" value="" style="ellipse;whiteSpace=wrap;html=1;aspect=fixed;fontSize=12;fillColor=#dae8fc;strokeColor=#6c8ebf;fontFamily=Bahnschrift;" parent="1" vertex="1">
                    <mxGeometry x="500.12" y="462" width="15" height="15" as="geometry"/>
                </mxCell>
                <mxCell id="72" value="" style="ellipse;whiteSpace=wrap;html=1;aspect=fixed;fontSize=12;fillColor=#dae8fc;strokeColor=#6c8ebf;fontFamily=Bahnschrift;" parent="1" vertex="1">
                    <mxGeometry x="500.12" y="442" width="15" height="15" as="geometry"/>
                </mxCell>
                <mxCell id="73" value="" style="ellipse;whiteSpace=wrap;html=1;aspect=fixed;fontSize=12;fillColor=#dae8fc;strokeColor=#6c8ebf;fontFamily=Bahnschrift;" parent="1" vertex="1">
                    <mxGeometry x="500.12" y="422" width="15" height="15" as="geometry"/>
                </mxCell>
                <mxCell id="74" value="" style="ellipse;whiteSpace=wrap;html=1;aspect=fixed;fontSize=12;fillColor=#647687;fontColor=#ffffff;strokeColor=#314354;fontFamily=Bahnschrift;" parent="1" vertex="1">
                    <mxGeometry x="533.12" y="434" width="15" height="15" as="geometry"/>
                </mxCell>
                <mxCell id="75" value="" style="ellipse;whiteSpace=wrap;html=1;aspect=fixed;fontSize=12;fillColor=#647687;fontColor=#ffffff;strokeColor=#314354;fontFamily=Bahnschrift;" parent="1" vertex="1">
                    <mxGeometry x="533.12" y="474" width="15" height="15" as="geometry"/>
                </mxCell>
                <mxCell id="76" value="" style="ellipse;whiteSpace=wrap;html=1;aspect=fixed;fontSize=12;fillColor=#647687;fontColor=#ffffff;strokeColor=#314354;fontFamily=Bahnschrift;" parent="1" vertex="1">
                    <mxGeometry x="533.12" y="454" width="15" height="15" as="geometry"/>
                </mxCell>
                <mxCell id="77" value="" style="endArrow=none;html=1;fontSize=12;strokeColor=default;entryX=0;entryY=0.5;entryDx=0;entryDy=0;exitX=1;exitY=0.5;exitDx=0;exitDy=0;fontFamily=Bahnschrift;" parent="1" source="67" target="73" edge="1">
                    <mxGeometry width="50" height="50" relative="1" as="geometry">
                        <mxPoint x="480.39" y="439" as="sourcePoint"/>
                        <mxPoint x="530.39" y="389" as="targetPoint"/>
                    </mxGeometry>
                </mxCell>
                <mxCell id="78" value="" style="endArrow=none;html=1;fontSize=12;strokeColor=default;exitX=1;exitY=0.5;exitDx=0;exitDy=0;fontFamily=Bahnschrift;" parent="1" source="69" edge="1">
                    <mxGeometry width="50" height="50" relative="1" as="geometry">
                        <mxPoint x="480.39" y="467" as="sourcePoint"/>
                        <mxPoint x="500.12" y="449" as="targetPoint"/>
                    </mxGeometry>
                </mxCell>
                <mxCell id="79" value="" style="endArrow=none;html=1;fontSize=12;strokeColor=default;exitX=1;exitY=0.5;exitDx=0;exitDy=0;entryX=0;entryY=0.5;entryDx=0;entryDy=0;fontFamily=Bahnschrift;" parent="1" source="68" target="71" edge="1">
                    <mxGeometry width="50" height="50" relative="1" as="geometry">
                        <mxPoint x="490.12" y="483" as="sourcePoint"/>
                        <mxPoint x="509.85" y="474" as="targetPoint"/>
                    </mxGeometry>
                </mxCell>
                <mxCell id="80" value="" style="endArrow=none;html=1;fontSize=12;strokeColor=default;entryX=0;entryY=0.5;entryDx=0;entryDy=0;exitX=1;exitY=0.5;exitDx=0;exitDy=0;fontFamily=Bahnschrift;" parent="1" source="67" target="72" edge="1">
                    <mxGeometry width="50" height="50" relative="1" as="geometry">
                        <mxPoint x="480.39" y="428.75" as="sourcePoint"/>
                        <mxPoint x="500.1199999999974" y="419.25" as="targetPoint"/>
                    </mxGeometry>
                </mxCell>
                <mxCell id="81" value="" style="endArrow=none;html=1;fontSize=12;strokeColor=default;entryX=0;entryY=0.5;entryDx=0;entryDy=0;fontFamily=Bahnschrift;" parent="1" target="74" edge="1">
                    <mxGeometry width="50" height="50" relative="1" as="geometry">
                        <mxPoint x="515.12" y="449" as="sourcePoint"/>
                        <mxPoint x="534.8499999999974" y="439.5" as="targetPoint"/>
                    </mxGeometry>
                </mxCell>
                <mxCell id="82" value="" style="endArrow=none;html=1;fontSize=12;strokeColor=default;entryX=0;entryY=0.5;entryDx=0;entryDy=0;fontFamily=Bahnschrift;" parent="1" target="76" edge="1">
                    <mxGeometry width="50" height="50" relative="1" as="geometry">
                        <mxPoint x="515.12" y="469" as="sourcePoint"/>
                        <mxPoint x="534.8499999999974" y="459.5" as="targetPoint"/>
                    </mxGeometry>
                </mxCell>
                <mxCell id="83" value="" style="endArrow=none;html=1;fontSize=12;strokeColor=default;entryX=0;entryY=0.5;entryDx=0;entryDy=0;fontFamily=Bahnschrift;" parent="1" target="75" edge="1">
                    <mxGeometry width="50" height="50" relative="1" as="geometry">
                        <mxPoint x="515.12" y="489" as="sourcePoint"/>
                        <mxPoint x="534.8499999999974" y="479.5" as="targetPoint"/>
                    </mxGeometry>
                </mxCell>
                <mxCell id="84" value="" style="endArrow=none;html=1;fontSize=12;strokeColor=default;exitX=0;exitY=0.5;exitDx=0;exitDy=0;jumpStyle=arc;fontFamily=Bahnschrift;" parent="1" source="71" edge="1">
                    <mxGeometry width="50" height="50" relative="1" as="geometry">
                        <mxPoint x="500.92999999999995" y="454" as="sourcePoint"/>
                        <mxPoint x="480.39" y="441" as="targetPoint"/>
                    </mxGeometry>
                </mxCell>
                <mxCell id="85" value="" style="endArrow=none;html=1;fontSize=12;strokeColor=default;jumpStyle=arc;entryX=1;entryY=0.5;entryDx=0;entryDy=0;exitX=0;exitY=0.5;exitDx=0;exitDy=0;fontFamily=Bahnschrift;" parent="1" source="70" target="67" edge="1">
                    <mxGeometry width="50" height="50" relative="1" as="geometry">
                        <mxPoint x="430.12" y="464" as="sourcePoint"/>
                        <mxPoint x="480.12" y="414" as="targetPoint"/>
                    </mxGeometry>
                </mxCell>
                <mxCell id="86" value="" style="endArrow=none;html=1;fontSize=12;strokeColor=default;jumpStyle=arc;entryX=0;entryY=0.5;entryDx=0;entryDy=0;fontFamily=Bahnschrift;" parent="1" target="71" edge="1">
                    <mxGeometry width="50" height="50" relative="1" as="geometry">
                        <mxPoint x="480.39" y="462" as="sourcePoint"/>
                        <mxPoint x="490.39" y="472" as="targetPoint"/>
                    </mxGeometry>
                </mxCell>
                <mxCell id="87" value="" style="endArrow=none;html=1;fontSize=12;strokeColor=default;entryX=0;entryY=0.5;entryDx=0;entryDy=0;jumpStyle=arc;fontFamily=Bahnschrift;" parent="1" target="76" edge="1">
                    <mxGeometry width="50" height="50" relative="1" as="geometry">
                        <mxPoint x="515.12" y="428.75" as="sourcePoint"/>
                        <mxPoint x="534.8499999999974" y="419.25" as="targetPoint"/>
                    </mxGeometry>
                </mxCell>
                <mxCell id="88" value="" style="endArrow=none;html=1;fontSize=12;strokeColor=default;entryX=0;entryY=0.5;entryDx=0;entryDy=0;fontFamily=Bahnschrift;" parent="1" target="74" edge="1">
                    <mxGeometry width="50" height="50" relative="1" as="geometry">
                        <mxPoint x="515.12" y="428.75" as="sourcePoint"/>
                        <mxPoint x="534.8499999999974" y="419.25" as="targetPoint"/>
                    </mxGeometry>
                </mxCell>
                <mxCell id="89" value="" style="endArrow=none;html=1;fontSize=12;strokeColor=default;jumpStyle=arc;entryX=-0.005;entryY=0.55;entryDx=0;entryDy=0;entryPerimeter=0;fontFamily=Bahnschrift;" parent="1" target="70" edge="1">
                    <mxGeometry width="50" height="50" relative="1" as="geometry">
                        <mxPoint x="480.39" y="462" as="sourcePoint"/>
                        <mxPoint x="490.39" y="472" as="targetPoint"/>
                    </mxGeometry>
                </mxCell>
                <mxCell id="90" value="" style="endArrow=none;html=1;fontSize=12;strokeColor=default;jumpStyle=arc;entryX=0;entryY=0.5;entryDx=0;entryDy=0;fontFamily=Bahnschrift;" parent="1" target="73" edge="1">
                    <mxGeometry width="50" height="50" relative="1" as="geometry">
                        <mxPoint x="480.39" y="482" as="sourcePoint"/>
                        <mxPoint x="490.39" y="492" as="targetPoint"/>
                    </mxGeometry>
                </mxCell>
                <mxCell id="91" value="" style="endArrow=none;html=1;fontSize=12;strokeColor=default;jumpStyle=arc;entryX=0;entryY=0.5;entryDx=0;entryDy=0;fontFamily=Bahnschrift;" parent="1" target="70" edge="1">
                    <mxGeometry width="50" height="50" relative="1" as="geometry">
                        <mxPoint x="480.39" y="482" as="sourcePoint"/>
                        <mxPoint x="490.39" y="492" as="targetPoint"/>
                    </mxGeometry>
                </mxCell>
                <mxCell id="92" value="" style="endArrow=none;html=1;fontSize=12;strokeColor=default;jumpStyle=arc;entryX=0;entryY=0.5;entryDx=0;entryDy=0;fontFamily=Bahnschrift;" parent="1" target="72" edge="1">
                    <mxGeometry width="50" height="50" relative="1" as="geometry">
                        <mxPoint x="480.39" y="482" as="sourcePoint"/>
                        <mxPoint x="490.39" y="492" as="targetPoint"/>
                    </mxGeometry>
                </mxCell>
                <mxCell id="93" value="" style="endArrow=none;html=1;fontSize=12;strokeColor=default;jumpStyle=arc;entryX=0;entryY=0.5;entryDx=0;entryDy=0;fontFamily=Bahnschrift;" parent="1" target="73" edge="1">
                    <mxGeometry width="50" height="50" relative="1" as="geometry">
                        <mxPoint x="480.39" y="462" as="sourcePoint"/>
                        <mxPoint x="490.39" y="472" as="targetPoint"/>
                    </mxGeometry>
                </mxCell>
                <mxCell id="94" value="" style="endArrow=none;html=1;fontSize=12;strokeColor=default;entryX=0;entryY=0.5;entryDx=0;entryDy=0;exitX=1;exitY=0.5;exitDx=0;exitDy=0;jumpStyle=arc;fontFamily=Bahnschrift;" parent="1" source="73" target="75" edge="1">
                    <mxGeometry width="50" height="50" relative="1" as="geometry">
                        <mxPoint x="530.76" y="431.5" as="sourcePoint"/>
                        <mxPoint x="550.4899999999974" y="422" as="targetPoint"/>
                    </mxGeometry>
                </mxCell>
                <mxCell id="95" value="" style="endArrow=none;html=1;fontSize=12;strokeColor=default;entryX=0;entryY=0.5;entryDx=0;entryDy=0;jumpStyle=arc;fontFamily=Bahnschrift;" parent="1" target="76" edge="1">
                    <mxGeometry width="50" height="50" relative="1" as="geometry">
                        <mxPoint x="515.12" y="449" as="sourcePoint"/>
                        <mxPoint x="534.8499999999974" y="439.5" as="targetPoint"/>
                    </mxGeometry>
                </mxCell>
                <mxCell id="96" value="" style="endArrow=none;html=1;fontSize=12;strokeColor=default;entryX=0;entryY=0.5;entryDx=0;entryDy=0;jumpStyle=arc;fontFamily=Bahnschrift;" parent="1" target="75" edge="1">
                    <mxGeometry width="50" height="50" relative="1" as="geometry">
                        <mxPoint x="515.12" y="449" as="sourcePoint"/>
                        <mxPoint x="534.8499999999974" y="439.5" as="targetPoint"/>
                    </mxGeometry>
                </mxCell>
                <mxCell id="97" value="" style="endArrow=none;html=1;fontSize=12;strokeColor=default;jumpStyle=arc;entryX=0;entryY=0.5;entryDx=0;entryDy=0;fontFamily=Bahnschrift;" parent="1" target="74" edge="1">
                    <mxGeometry width="50" height="50" relative="1" as="geometry">
                        <mxPoint x="515.12" y="469" as="sourcePoint"/>
                        <mxPoint x="560.12" y="474" as="targetPoint"/>
                    </mxGeometry>
                </mxCell>
                <mxCell id="98" value="" style="endArrow=none;html=1;fontSize=12;strokeColor=default;entryX=1;entryY=0.5;entryDx=0;entryDy=0;jumpStyle=arc;exitX=0;exitY=0.5;exitDx=0;exitDy=0;fontFamily=Bahnschrift;" parent="1" source="75" target="71" edge="1">
                    <mxGeometry width="50" height="50" relative="1" as="geometry">
                        <mxPoint x="570.39" y="474" as="sourcePoint"/>
                        <mxPoint x="590.1199999999975" y="464.5" as="targetPoint"/>
                    </mxGeometry>
                </mxCell>
                <mxCell id="99" value="" style="endArrow=none;html=1;fontSize=12;strokeColor=default;entryX=0;entryY=0.5;entryDx=0;entryDy=0;jumpStyle=arc;fontFamily=Bahnschrift;" parent="1" target="74" edge="1">
                    <mxGeometry width="50" height="50" relative="1" as="geometry">
                        <mxPoint x="515.12" y="489" as="sourcePoint"/>
                        <mxPoint x="534.8499999999975" y="479.5" as="targetPoint"/>
                    </mxGeometry>
                </mxCell>
                <mxCell id="100" value="" style="endArrow=none;html=1;fontSize=12;strokeColor=default;entryX=0;entryY=0.5;entryDx=0;entryDy=0;jumpStyle=arc;exitX=1;exitY=0.5;exitDx=0;exitDy=0;fontFamily=Bahnschrift;" parent="1" source="70" target="76" edge="1">
                    <mxGeometry width="50" height="50" relative="1" as="geometry">
                        <mxPoint x="525.12" y="499" as="sourcePoint"/>
                        <mxPoint x="543.1199999999995" y="451.5" as="targetPoint"/>
                    </mxGeometry>
                </mxCell>
                <mxCell id="101" value="filter" style="rounded=1;whiteSpace=wrap;html=1;shadow=0;labelBackgroundColor=none;labelBorderColor=none;fontSize=12;strokeColor=#005073;strokeWidth=1;fillColor=none;gradientColor=none;fontFamily=Bahnschrift;" parent="1" vertex="1">
                    <mxGeometry x="14.499999999999993" y="592" width="30" height="20" as="geometry"/>
                </mxCell>
                <mxCell id="102" value="&lt;span&gt;classification&lt;/span&gt;" style="rounded=1;whiteSpace=wrap;html=1;shadow=0;labelBackgroundColor=none;labelBorderColor=none;fontSize=12;strokeColor=#005073;strokeWidth=1;fillColor=none;gradientColor=none;fontFamily=Bahnschrift;" parent="1" vertex="1">
                    <mxGeometry x="84.12" y="592" width="70" height="20" as="geometry"/>
                </mxCell>
                <mxCell id="104" value="filter" style="rounded=1;whiteSpace=wrap;html=1;shadow=0;labelBackgroundColor=none;labelBorderColor=none;fontSize=12;strokeColor=#005073;strokeWidth=1;fillColor=none;gradientColor=none;fontFamily=Bahnschrift;" parent="1" vertex="1">
                    <mxGeometry x="251.63" y="592" width="30" height="20" as="geometry"/>
                </mxCell>
                <mxCell id="105" value="&lt;span&gt;classification&lt;/span&gt;" style="rounded=1;whiteSpace=wrap;html=1;shadow=0;labelBackgroundColor=none;labelBorderColor=none;fontSize=12;strokeColor=#005073;strokeWidth=1;fillColor=none;gradientColor=none;fontFamily=Bahnschrift;" parent="1" vertex="1">
                    <mxGeometry x="321.25" y="592" width="70" height="20" as="geometry"/>
                </mxCell>
                <mxCell id="107" value="filter" style="rounded=1;whiteSpace=wrap;html=1;shadow=0;labelBackgroundColor=none;labelBorderColor=none;fontSize=12;strokeColor=#005073;strokeWidth=1;fillColor=none;gradientColor=none;fontFamily=Bahnschrift;" parent="1" vertex="1">
                    <mxGeometry x="483.25" y="592" width="30" height="20" as="geometry"/>
                </mxCell>
                <mxCell id="108" value="&lt;span&gt;classification&lt;/span&gt;" style="rounded=1;whiteSpace=wrap;html=1;shadow=0;labelBackgroundColor=none;labelBorderColor=none;fontSize=12;strokeColor=#005073;strokeWidth=1;fillColor=none;gradientColor=none;fontFamily=Bahnschrift;" parent="1" vertex="1">
                    <mxGeometry x="552.87" y="592" width="70" height="20" as="geometry"/>
                </mxCell>
                <mxCell id="111" style="edgeStyle=none;jumpStyle=arc;html=1;entryX=0.5;entryY=1;entryDx=0;entryDy=0;entryPerimeter=0;fontFamily=Bahnschrift;fontSize=12;strokeColor=default;" parent="1" source="113" target="7" edge="1">
                    <mxGeometry relative="1" as="geometry"/>
                </mxCell>
                <mxCell id="112" style="edgeStyle=none;jumpStyle=arc;html=1;exitX=1;exitY=0.5;exitDx=0;exitDy=0;entryX=0.5;entryY=0;entryDx=0;entryDy=0;entryPerimeter=0;fontFamily=Bahnschrift;fontSize=12;strokeColor=default;" parent="1" source="113" target="5" edge="1">
                    <mxGeometry relative="1" as="geometry"/>
                </mxCell>
                <mxCell id="113" value="SouthBridge" style="rounded=1;whiteSpace=wrap;html=1;shadow=0;labelBackgroundColor=none;labelBorderColor=none;fontFamily=Bahnschrift;fontSize=12;strokeColor=#005073;strokeWidth=1;fillColor=none;gradientColor=none;" parent="1" vertex="1">
                    <mxGeometry x="167.12" y="647" width="63.76" height="30" as="geometry"/>
                </mxCell>
                <mxCell id="114" style="edgeStyle=none;jumpStyle=arc;html=1;exitX=0;exitY=0.5;exitDx=0;exitDy=0;entryX=0.5;entryY=1;entryDx=0;entryDy=0;entryPerimeter=0;fontFamily=Bahnschrift;fontSize=12;strokeColor=default;" parent="1" source="116" target="4" edge="1">
                    <mxGeometry relative="1" as="geometry"/>
                </mxCell>
                <mxCell id="115" style="edgeStyle=none;jumpStyle=arc;html=1;entryX=0.5;entryY=0;entryDx=0;entryDy=0;entryPerimeter=0;fontFamily=Bahnschrift;fontSize=12;strokeColor=default;" parent="1" source="116" target="3" edge="1">
                    <mxGeometry relative="1" as="geometry"/>
                </mxCell>
                <mxCell id="116" value="SouthBridge" style="rounded=1;whiteSpace=wrap;html=1;shadow=0;labelBackgroundColor=none;labelBorderColor=none;fontFamily=Bahnschrift;fontSize=12;strokeColor=#005073;strokeWidth=1;fillColor=none;gradientColor=none;" parent="1" vertex="1">
                    <mxGeometry x="400.12" y="647.5" width="66" height="30" as="geometry"/>
                </mxCell>
                <mxCell id="117" style="edgeStyle=none;jumpStyle=arc;html=1;fontFamily=Bahnschrift;fontSize=12;strokeColor=default;" parent="1" source="119" target="15" edge="1">
                    <mxGeometry relative="1" as="geometry"/>
                </mxCell>
                <mxCell id="118" style="edgeStyle=none;jumpStyle=arc;html=1;exitX=1;exitY=0.5;exitDx=0;exitDy=0;entryX=0;entryY=0.5;entryDx=0;entryDy=0;fontFamily=Bahnschrift;fontSize=12;strokeColor=default;" parent="1" source="119" target="16" edge="1">
                    <mxGeometry relative="1" as="geometry"/>
                </mxCell>
                <mxCell id="119" value="Edge server" style="rounded=1;whiteSpace=wrap;html=1;shadow=0;labelBackgroundColor=none;labelBorderColor=none;fontFamily=Bahnschrift;fontSize=12;strokeColor=#005073;strokeWidth=1;fillColor=none;gradientColor=none;" parent="1" vertex="1">
                    <mxGeometry x="184.12" y="583.5" width="36" height="27.5" as="geometry"/>
                </mxCell>
                <mxCell id="120" style="edgeStyle=none;jumpStyle=arc;html=1;entryX=1;entryY=0.5;entryDx=0;entryDy=0;fontFamily=Bahnschrift;fontSize=12;strokeColor=default;" parent="1" source="122" target="16" edge="1">
                    <mxGeometry relative="1" as="geometry"/>
                </mxCell>
                <mxCell id="121" style="edgeStyle=none;jumpStyle=arc;html=1;exitX=1;exitY=0.5;exitDx=0;exitDy=0;entryX=0;entryY=0.5;entryDx=0;entryDy=0;fontFamily=Bahnschrift;fontSize=12;strokeColor=default;" parent="1" source="122" target="17" edge="1">
                    <mxGeometry relative="1" as="geometry"/>
                </mxCell>
                <mxCell id="122" value="Edge server" style="rounded=1;whiteSpace=wrap;html=1;shadow=0;labelBackgroundColor=none;labelBorderColor=none;fontFamily=Bahnschrift;fontSize=12;strokeColor=#005073;strokeWidth=1;fillColor=none;gradientColor=none;" parent="1" vertex="1">
                    <mxGeometry x="416.12" y="583.5" width="37" height="27.5" as="geometry"/>
                </mxCell>
                <mxCell id="125" style="edgeStyle=none;html=1;exitX=0;exitY=0.5;exitDx=0;exitDy=0;fontFamily=Bahnschrift;" edge="1" parent="1" source="123" target="9">
                    <mxGeometry relative="1" as="geometry"/>
                </mxCell>
                <mxCell id="126" style="edgeStyle=none;html=1;exitX=1;exitY=0.5;exitDx=0;exitDy=0;entryX=0;entryY=0.5;entryDx=0;entryDy=0;entryPerimeter=0;fontFamily=Bahnschrift;" edge="1" parent="1" source="123" target="10">
                    <mxGeometry relative="1" as="geometry"/>
                </mxCell>
                <mxCell id="123" value="&lt;span&gt;IIoT&lt;/span&gt;&lt;br&gt;&lt;span&gt;device&lt;/span&gt;" style="rounded=1;whiteSpace=wrap;html=1;shadow=0;labelBackgroundColor=none;labelBorderColor=none;fontFamily=Bahnschrift;fontSize=12;strokeColor=#005073;strokeWidth=1;fillColor=none;gradientColor=none;" vertex="1" parent="1">
                    <mxGeometry x="182.5" y="707" width="34.76" height="39.5" as="geometry"/>
                </mxCell>
                <mxCell id="127" style="edgeStyle=none;html=1;exitX=0;exitY=0.5;exitDx=0;exitDy=0;entryX=1;entryY=0.5;entryDx=0;entryDy=0;entryPerimeter=0;fontFamily=Bahnschrift;" edge="1" parent="1" source="124" target="11">
                    <mxGeometry relative="1" as="geometry"/>
                </mxCell>
                <mxCell id="128" style="edgeStyle=none;html=1;exitX=1;exitY=0.5;exitDx=0;exitDy=0;entryX=0;entryY=0.5;entryDx=0;entryDy=0;entryPerimeter=0;fontFamily=Bahnschrift;" edge="1" parent="1" source="124" target="12">
                    <mxGeometry relative="1" as="geometry"/>
                </mxCell>
                <mxCell id="124" value="&lt;span&gt;IIoT&lt;/span&gt;&lt;br&gt;&lt;span&gt;device&lt;/span&gt;" style="rounded=1;whiteSpace=wrap;html=1;shadow=0;labelBackgroundColor=none;labelBorderColor=none;fontFamily=Bahnschrift;fontSize=12;strokeColor=#005073;strokeWidth=1;fillColor=none;gradientColor=none;" vertex="1" parent="1">
                    <mxGeometry x="415.36" y="707" width="34.76" height="39.5" as="geometry"/>
                </mxCell>
                <mxCell id="132" value="" style="shape=image;imageAspect=0;aspect=fixed;verticalLabelPosition=bottom;verticalAlign=top;image=data:image/svg+xml,PHN2ZyB4bWxucz0iaHR0cDovL3d3dy53My5vcmcvMjAwMC9zdmciIHhtbG5zOnhsaW5rPSJodHRwOi8vd3d3LnczLm9yZy8xOTk5L3hsaW5rIiB0PSIxNjU2MzM0ODg5ODczIiBjbGFzcz0iaWNvbiIgdmlld0JveD0iMCAwIDEwMjQgMTAyNCIgdmVyc2lvbj0iMS4xIiBwLWlkPSIyNDI0IiB3aWR0aD0iMjAwIiBoZWlnaHQ9IjIwMCI+PGRlZnM+PHN0eWxlIHR5cGU9InRleHQvY3NzIi8+PC9kZWZzPjxwYXRoIGQ9Ik0xNTEuNjggNTA4LjhMMTk0LjU2IDYwOGw0Mi44OCAxMjQuOCAzMC4wOCA1Ni45NiA1Mi40OCAxMS41MiAxMDAuNDgtNDkuOTIgMjQuOTYtMTQuNzItMS45MiAxNzAuODggMjM2LjE2IDYuNCAxMi4xNi03NS41MiA4Ljk2LTY1LjI4IDQyLjg4LTE0My4zNiA0OS45Mi0xMDAuNDggMzYuNDgtNzUuNTIgMTIuMTYtNzEuNjgtNC40OC02Mi43Mi0yMy42OC02OC40OC00Ni4wOC02My4zNi02Mi43Mi00Ni43Mi0xMjEuNi0zMy4yOEg0NzguMDhsLTExMC4wOCAyMS4xMi05NC43MiA2Ny4yLTQ3LjM2IDcyLjMyLTE5Ljg0IDY3LjItMTIuMTYgNjcuMi0xMC44OCA0OC0zNC41NiA0MC4zMnoiIGZpbGw9IiMxMjk3QjUiIHAtaWQ9IjI0MjUiLz48cGF0aCBkPSJNNjg5LjI4IDkyNi43Mkg0MzkuMDRjLTcuMDQgMC0xMi44LTUuNzYtMTIuOC0xMi44di0xNjMuODRjMC03LjA0IDUuNzYtMTIuOCAxMi44LTEyLjhzMTIuOCA1Ljc2IDEyLjggMTIuOHYxNTEuMDRoMjI0LjY0di00LjQ4YzAtMTMxLjg0IDQwLjMyLTI2Ni44OCAxMTUuODQtMzkwLjQgMTcuMjgtMjguMTYgMjguOC01OS41MiAzMy45Mi05Mi4xNiAxMi4xNi03NS41Mi03LjY4LTE0Ny44NC01NS4wNC0yMDMuNTItNDguNjQtNTcuNi0xMjIuODgtOTAuMjQtMjAzLjUyLTkwLjI0aC04OS42Yy00Mi4yNCAwLTgwLjY0IDguMzItMTE1LjIgMjQuOTYtOTAuODggNDQuMTYtMTQ3LjIgMTMzLjEyLTE0Ny4yIDIzMy42IDAgNDgtMjEuNzYgOTIuOC01OC44OCAxMjIuODhsLTEuOTIgMS4yOGMzNC41NiA1Ny42IDYyLjcyIDExOS42OCA4My4yIDE4NC45Nmw5LjYgMzMuMjhjMC42NCAyLjU2IDEuOTIgNS43NiAyLjU2IDguMzJsNC40OCAxNi42NGM0LjQ4IDE3LjI4IDE1LjM2IDMxLjM2IDI5LjQ0IDM4LjQgMTYgNy42OCAzNC41NiA3LjA0IDQ5LjkyLTEuMjggNi40LTMuMiAxNC4wOC0xLjI4IDE3LjI4IDUuMTJzMS4yOCAxNC4wOC01LjEyIDE3LjI4Yy0yMi40IDEyLjE2LTQ5LjkyIDEyLjgtNzMuNiAxLjI4LTIxLjEyLTEwLjI0LTM2LjQ4LTMwLjA4LTQyLjg4LTU1LjA0bC00LjQ4LTE2LjY0LTEuOTItNy42OC05LjYtMzIuNjRDMTkyIDYyOC40OCAxNjMuMiA1NjUuMTIgMTI2LjcyIDUwNi4yNGMtMy4yLTUuNzYtMS45Mi0xMi44IDMuMi0xNi42NGwxMC44OC04LjMyYzMxLjM2LTI0Ljk2IDQ5LjI4LTYyLjcyIDQ5LjI4LTEwMy4wNCAwLTExMC4wOCA2Mi4wOC0yMDggMTYxLjkyLTI1Ni42NCAzNy43Ni0xNy45MiA4MC0yNy41MiAxMjYuMDgtMjcuNTJoOTAuMjRjODguMzIgMCAxNjkuNiAzNS44NCAyMjMuMzYgOTkuMiA1Mi40OCA2MS40NCA3My42IDE0MC44IDYwLjggMjI0LTUuNzYgMzYuNDgtMTguNTYgNzAuNC0zNy4xMiAxMDEuNzYtNzMuNiAxMTkuNjgtMTEyIDI0OS42LTExMiAzNzYuOTZ2MTcuMjhjLTEuMjggNy42OC03LjA0IDEzLjQ0LTE0LjA4IDEzLjQ0eiIgZmlsbD0iIzI5RTBGNiIgcC1pZD0iMjQyNiIvPjxwYXRoIGQ9Ik0zMzkuMiA4MDcuMDRjLTQuNDggMC04Ljk2LTIuNTYtMTEuNTItNi40LTMuMi02LjQtMS4yOC0xNC4wOCA1LjEyLTE3LjI4bDE1MS4wNC04MS45MmM2LjQtMy4yIDE0LjA4LTEuMjggMTcuMjggNS4xMnMxLjI4IDE0LjA4LTUuMTIgMTcuMjhMMzQ1LjYgODA1Ljc2Yy0xLjkyIDEuMjgtNC40OCAxLjI4LTYuNCAxLjI4ek0zMDcuMiA0MjIuNGgtNDQuOGMtNy4wNCAwLTEyLjgtNS43Ni0xMi44LTEyLjhzNS43Ni0xMi44IDEyLjgtMTIuOGg0NC44YzcuMDQgMCAxMi44IDUuNzYgMTIuOCAxMi44cy01Ljc2IDEyLjgtMTIuOCAxMi44ek0yNjguOCA2ODQuOGgtNDQuOGMtNy4wNCAwLTEyLjgtNS43Ni0xMi44LTEyLjhzNS43Ni0xMi44IDEyLjgtMTIuOGg0NC44YzcuMDQgMCAxMi44IDUuNzYgMTIuOCAxMi44cy01Ljc2IDEyLjgtMTIuOCAxMi44ek00NTkuNTIgMzUyLjY0Yy0yNC4zMiAwLTQ0LjE2LTE5Ljg0LTQ0LjE2LTQ0LjE2czE5Ljg0LTQ0LjE2IDQ0LjE2LTQ0LjE2YzI0LjMyIDAgNDQuMTYgMTkuODQgNDQuMTYgNDQuMTZzLTE5Ljg0IDQ0LjE2LTQ0LjE2IDQ0LjE2eiBtMC02My4zNmMtMTAuMjQgMC0xOC41NiA4LjMyLTE4LjU2IDE4LjU2czguMzIgMTguNTYgMTguNTYgMTguNTZjMTAuMjQgMCAxOC41Ni04LjMyIDE4LjU2LTE4LjU2cy04LjMyLTE4LjU2LTE4LjU2LTE4LjU2ek02MzguNzIgNDgwLjY0Yy0yNC4zMiAwLTQ0LjE2LTE5Ljg0LTQ0LjE2LTQ0LjE2czE5Ljg0LTQ0LjE2IDQ0LjE2LTQ0LjE2YzI0LjMyIDAgNDQuMTYgMTkuODQgNDQuMTYgNDQuMTZzLTE5Ljg0IDQ0LjE2LTQ0LjE2IDQ0LjE2eiBtMC02My4zNmMtMTAuMjQgMC0xOC41NiA4LjMyLTE4LjU2IDE4LjU2czguMzIgMTguNTYgMTguNTYgMTguNTZjMTAuMjQgMCAxOC41Ni04LjMyIDE4LjU2LTE4LjU2cy04LjMyLTE4LjU2LTE4LjU2LTE4LjU2ek02MzguNzIgMzUyLjY0Yy0yNC4zMiAwLTQ0LjE2LTE5Ljg0LTQ0LjE2LTQ0LjE2czE5Ljg0LTQ0LjE2IDQ0LjE2LTQ0LjE2YzI0LjMyIDAgNDQuMTYgMTkuODQgNDQuMTYgNDQuMTZzLTE5Ljg0IDQ0LjE2LTQ0LjE2IDQ0LjE2eiBtMC02My4zNmMtMTAuMjQgMC0xOC41NiA4LjMyLTE4LjU2IDE4LjU2czguMzIgMTguNTYgMTguNTYgMTguNTZjMTAuMjQgMCAxOC41Ni04LjMyIDE4LjU2LTE4LjU2cy04LjMyLTE4LjU2LTE4LjU2LTE4LjU2eiIgZmlsbD0iIzI5RTBGNiIgcC1pZD0iMjQyNyIvPjxwYXRoIGQ9Ik02MzguNzIgNDEwLjg4Yy03LjA0IDAtMTIuOC01Ljc2LTEyLjgtMTIuOFYzNDUuNmMwLTcuMDQgNS43Ni0xMi44IDEyLjgtMTIuOHMxMi44IDUuNzYgMTIuOCAxMi44djUzLjEyYzAgNy4wNC01Ljc2IDEyLjE2LTEyLjggMTIuMTZ6TTYzOC43MiAyODIuMjRjLTcuMDQgMC0xMi44LTUuNzYtMTIuOC0xMi44di01My4xMmMwLTcuMDQgNS43Ni0xMi44IDEyLjgtMTIuOHMxMi44IDUuNzYgMTIuOCAxMi44djUzLjEyYzAgNy4wNC01Ljc2IDEyLjgtMTIuOCAxMi44ek00NzguNzIgMzA4LjQ4YzAtNy4wNCA1Ljc2LTEyLjggMTIuOC0xMi44aDEwMy4wNGM3LjA0IDAgMTIuOCA1Ljc2IDEyLjggMTIuOHMtNS43NiAxMi44LTEyLjggMTIuOEg0OTEuNTJjLTcuMDQgMC0xMi44LTUuNzYtMTIuOC0xMi44ek00NTkuNTIgNDEwLjg4Yy03LjA0IDAtMTIuOC01Ljc2LTEyLjgtMTIuOFYzNDUuNmMwLTcuMDQgNS43Ni0xMi44IDEyLjgtMTIuOHMxMi44IDUuNzYgMTIuOCAxMi44djUzLjEyYzAgNy4wNC01Ljc2IDEyLjE2LTEyLjggMTIuMTZ6IiBmaWxsPSIjMjlFMEY2IiBwLWlkPSIyNDI4Ii8+PHBhdGggZD0iTTQ0Ni43MiAzOTguNzJjMC03LjA0IDUuNzYtMTIuOCAxMi44LTEyLjhoNDkuOTJjNy4wNCAwIDEyLjggNS43NiAxMi44IDEyLjhzLTUuNzYgMTIuOC0xMi44IDEyLjhoLTQ5LjkyYy03LjA0IDAtMTIuOC01Ljc2LTEyLjgtMTIuOHpNNjU3LjkyIDMwOC40OGMwLTcuMDQgNS43Ni0xMi44IDEyLjgtMTIuOGg4MC42NGM3LjA0IDAgMTIuOCA1Ljc2IDEyLjggMTIuOHMtNS43NiAxMi44LTEyLjggMTIuOGgtODAuNjRjLTcuMDQgMC0xMi44LTUuNzYtMTIuOC0xMi44eiIgZmlsbD0iIzI5RTBGNiIgcC1pZD0iMjQyOSIvPjxwYXRoIGQ9Ik01MTQuNTYgNDY0Yy03LjA0IDAtMTIuOC01Ljc2LTEyLjgtMTIuOHYtNTMuMTJjMC03LjA0IDUuNzYtMTIuOCAxMi44LTEyLjhzMTIuOCA1Ljc2IDEyLjggMTIuOHY1My4xMmMwIDcuMDQtNS43NiAxMi44LTEyLjggMTIuOHpNNTY4Ljk2IDIxNi4zMmMwLTcuMDQgNS43Ni0xMi44IDEyLjgtMTIuOGg1My4xMmM3LjA0IDAgMTIuOCA1Ljc2IDEyLjggMTIuOHMtNS43NiAxMi44LTEyLjggMTIuOGgtNTMuMTJjLTcuMDQgMC0xMi44LTUuNzYtMTIuOC0xMi44eiIgZmlsbD0iIzI5RTBGNiIgcC1pZD0iMjQzMCIvPjxwYXRoIGQ9Ik01ODEuNzYgMjI5Ljc2Yy03LjA0IDAtMTIuOC01Ljc2LTEyLjgtMTIuOHYtNDQuOGMwLTcuMDQgNS43Ni0xMi44IDEyLjgtMTIuOHMxMi44IDUuNzYgMTIuOCAxMi44djQ0LjhjMCA3LjA0LTUuNzYgMTIuOC0xMi44IDEyLjh6TTY1Ny45MiA0MzYuNDhjMC03LjA0IDUuNzYtMTIuOCAxMi44LTEyLjhoNTcuNmM3LjA0IDAgMTIuOCA1Ljc2IDEyLjggMTIuOHMtNS43NiAxMi44LTEyLjggMTIuOGgtNTcuNmMtNy4wNCAwLTEyLjgtNS43Ni0xMi44LTEyLjh6TTQ1Ni4zMiAyODkuMjhjLTcuMDQgMC0xMi44LTUuNzYtMTIuOC0xMi44VjIyNGMwLTcuMDQgNS43Ni0xMi44IDEyLjgtMTIuOHMxMi44IDUuNzYgMTIuOCAxMi44djUzLjEyYzAgNi40LTUuNzYgMTIuMTYtMTIuOCAxMi4xNnoiIGZpbGw9IiMyOUUwRjYiIHAtaWQ9IjI0MzEiLz48cGF0aCBkPSJNMzg2LjU2IDIyNGMwLTcuMDQgNS43Ni0xMi44IDEyLjgtMTIuOGg1My4xMmM3LjA0IDAgMTIuOCA1Ljc2IDEyLjggMTIuOHMtNS43NiAxMi44LTEyLjggMTIuOGgtNTMuMTJjLTcuMDQgMC0xMi44LTUuNzYtMTIuOC0xMi44eiIgZmlsbD0iIzI5RTBGNiIgcC1pZD0iMjQzMiIvPjxwYXRoIGQ9Ik0zNjkuOTIgMjY5LjQ0Yy0yNC4zMiAwLTQ0LjE2LTE5Ljg0LTQ0LjE2LTQ0LjE2czE5Ljg0LTQ0LjE2IDQ0LjE2LTQ0LjE2YzI0LjMyIDAgNDQuMTYgMTkuODQgNDQuMTYgNDQuMTZzLTE5Ljg0IDQ0LjE2LTQ0LjE2IDQ0LjE2eiBtMC02My4zNmMtMTAuMjQgMC0xOC41NiA4LjMyLTE4LjU2IDE4LjU2czguMzIgMTguNTYgMTguNTYgMTguNTZjMTAuMjQgMCAxOC41Ni04LjMyIDE4LjU2LTE4LjU2cy04LjMyLTE4LjU2LTE4LjU2LTE4LjU2ek02MTYuOTYgOTE4LjRjLTcuMDQgMC0xMi44LTUuNzYtMTIuOC0xMi44di0yMTMuNzZjMC03LjA0IDUuNzYtMTIuOCAxMi44LTEyLjhzMTIuOCA1Ljc2IDEyLjggMTIuOHYyMTMuNzZjMCA3LjA0LTUuNzYgMTIuOC0xMi44IDEyLjh6IiBmaWxsPSIjMjlFMEY2IiBwLWlkPSIyNDMzIi8+PC9zdmc+;fontFamily=Bahnschrift;" vertex="1" parent="1">
                    <mxGeometry x="40.49999999999999" y="576" width="51" height="51" as="geometry"/>
                </mxCell>
                <mxCell id="133" value="" style="shape=image;imageAspect=0;aspect=fixed;verticalLabelPosition=bottom;verticalAlign=top;image=data:image/svg+xml,PHN2ZyB4bWxucz0iaHR0cDovL3d3dy53My5vcmcvMjAwMC9zdmciIHhtbG5zOnhsaW5rPSJodHRwOi8vd3d3LnczLm9yZy8xOTk5L3hsaW5rIiB0PSIxNjU2MzM0ODg5ODczIiBjbGFzcz0iaWNvbiIgdmlld0JveD0iMCAwIDEwMjQgMTAyNCIgdmVyc2lvbj0iMS4xIiBwLWlkPSIyNDI0IiB3aWR0aD0iMjAwIiBoZWlnaHQ9IjIwMCI+PGRlZnM+PHN0eWxlIHR5cGU9InRleHQvY3NzIi8+PC9kZWZzPjxwYXRoIGQ9Ik0xNTEuNjggNTA4LjhMMTk0LjU2IDYwOGw0Mi44OCAxMjQuOCAzMC4wOCA1Ni45NiA1Mi40OCAxMS41MiAxMDAuNDgtNDkuOTIgMjQuOTYtMTQuNzItMS45MiAxNzAuODggMjM2LjE2IDYuNCAxMi4xNi03NS41MiA4Ljk2LTY1LjI4IDQyLjg4LTE0My4zNiA0OS45Mi0xMDAuNDggMzYuNDgtNzUuNTIgMTIuMTYtNzEuNjgtNC40OC02Mi43Mi0yMy42OC02OC40OC00Ni4wOC02My4zNi02Mi43Mi00Ni43Mi0xMjEuNi0zMy4yOEg0NzguMDhsLTExMC4wOCAyMS4xMi05NC43MiA2Ny4yLTQ3LjM2IDcyLjMyLTE5Ljg0IDY3LjItMTIuMTYgNjcuMi0xMC44OCA0OC0zNC41NiA0MC4zMnoiIGZpbGw9IiMxMjk3QjUiIHAtaWQ9IjI0MjUiLz48cGF0aCBkPSJNNjg5LjI4IDkyNi43Mkg0MzkuMDRjLTcuMDQgMC0xMi44LTUuNzYtMTIuOC0xMi44di0xNjMuODRjMC03LjA0IDUuNzYtMTIuOCAxMi44LTEyLjhzMTIuOCA1Ljc2IDEyLjggMTIuOHYxNTEuMDRoMjI0LjY0di00LjQ4YzAtMTMxLjg0IDQwLjMyLTI2Ni44OCAxMTUuODQtMzkwLjQgMTcuMjgtMjguMTYgMjguOC01OS41MiAzMy45Mi05Mi4xNiAxMi4xNi03NS41Mi03LjY4LTE0Ny44NC01NS4wNC0yMDMuNTItNDguNjQtNTcuNi0xMjIuODgtOTAuMjQtMjAzLjUyLTkwLjI0aC04OS42Yy00Mi4yNCAwLTgwLjY0IDguMzItMTE1LjIgMjQuOTYtOTAuODggNDQuMTYtMTQ3LjIgMTMzLjEyLTE0Ny4yIDIzMy42IDAgNDgtMjEuNzYgOTIuOC01OC44OCAxMjIuODhsLTEuOTIgMS4yOGMzNC41NiA1Ny42IDYyLjcyIDExOS42OCA4My4yIDE4NC45Nmw5LjYgMzMuMjhjMC42NCAyLjU2IDEuOTIgNS43NiAyLjU2IDguMzJsNC40OCAxNi42NGM0LjQ4IDE3LjI4IDE1LjM2IDMxLjM2IDI5LjQ0IDM4LjQgMTYgNy42OCAzNC41NiA3LjA0IDQ5LjkyLTEuMjggNi40LTMuMiAxNC4wOC0xLjI4IDE3LjI4IDUuMTJzMS4yOCAxNC4wOC01LjEyIDE3LjI4Yy0yMi40IDEyLjE2LTQ5LjkyIDEyLjgtNzMuNiAxLjI4LTIxLjEyLTEwLjI0LTM2LjQ4LTMwLjA4LTQyLjg4LTU1LjA0bC00LjQ4LTE2LjY0LTEuOTItNy42OC05LjYtMzIuNjRDMTkyIDYyOC40OCAxNjMuMiA1NjUuMTIgMTI2LjcyIDUwNi4yNGMtMy4yLTUuNzYtMS45Mi0xMi44IDMuMi0xNi42NGwxMC44OC04LjMyYzMxLjM2LTI0Ljk2IDQ5LjI4LTYyLjcyIDQ5LjI4LTEwMy4wNCAwLTExMC4wOCA2Mi4wOC0yMDggMTYxLjkyLTI1Ni42NCAzNy43Ni0xNy45MiA4MC0yNy41MiAxMjYuMDgtMjcuNTJoOTAuMjRjODguMzIgMCAxNjkuNiAzNS44NCAyMjMuMzYgOTkuMiA1Mi40OCA2MS40NCA3My42IDE0MC44IDYwLjggMjI0LTUuNzYgMzYuNDgtMTguNTYgNzAuNC0zNy4xMiAxMDEuNzYtNzMuNiAxMTkuNjgtMTEyIDI0OS42LTExMiAzNzYuOTZ2MTcuMjhjLTEuMjggNy42OC03LjA0IDEzLjQ0LTE0LjA4IDEzLjQ0eiIgZmlsbD0iIzI5RTBGNiIgcC1pZD0iMjQyNiIvPjxwYXRoIGQ9Ik0zMzkuMiA4MDcuMDRjLTQuNDggMC04Ljk2LTIuNTYtMTEuNTItNi40LTMuMi02LjQtMS4yOC0xNC4wOCA1LjEyLTE3LjI4bDE1MS4wNC04MS45MmM2LjQtMy4yIDE0LjA4LTEuMjggMTcuMjggNS4xMnMxLjI4IDE0LjA4LTUuMTIgMTcuMjhMMzQ1LjYgODA1Ljc2Yy0xLjkyIDEuMjgtNC40OCAxLjI4LTYuNCAxLjI4ek0zMDcuMiA0MjIuNGgtNDQuOGMtNy4wNCAwLTEyLjgtNS43Ni0xMi44LTEyLjhzNS43Ni0xMi44IDEyLjgtMTIuOGg0NC44YzcuMDQgMCAxMi44IDUuNzYgMTIuOCAxMi44cy01Ljc2IDEyLjgtMTIuOCAxMi44ek0yNjguOCA2ODQuOGgtNDQuOGMtNy4wNCAwLTEyLjgtNS43Ni0xMi44LTEyLjhzNS43Ni0xMi44IDEyLjgtMTIuOGg0NC44YzcuMDQgMCAxMi44IDUuNzYgMTIuOCAxMi44cy01Ljc2IDEyLjgtMTIuOCAxMi44ek00NTkuNTIgMzUyLjY0Yy0yNC4zMiAwLTQ0LjE2LTE5Ljg0LTQ0LjE2LTQ0LjE2czE5Ljg0LTQ0LjE2IDQ0LjE2LTQ0LjE2YzI0LjMyIDAgNDQuMTYgMTkuODQgNDQuMTYgNDQuMTZzLTE5Ljg0IDQ0LjE2LTQ0LjE2IDQ0LjE2eiBtMC02My4zNmMtMTAuMjQgMC0xOC41NiA4LjMyLTE4LjU2IDE4LjU2czguMzIgMTguNTYgMTguNTYgMTguNTZjMTAuMjQgMCAxOC41Ni04LjMyIDE4LjU2LTE4LjU2cy04LjMyLTE4LjU2LTE4LjU2LTE4LjU2ek02MzguNzIgNDgwLjY0Yy0yNC4zMiAwLTQ0LjE2LTE5Ljg0LTQ0LjE2LTQ0LjE2czE5Ljg0LTQ0LjE2IDQ0LjE2LTQ0LjE2YzI0LjMyIDAgNDQuMTYgMTkuODQgNDQuMTYgNDQuMTZzLTE5Ljg0IDQ0LjE2LTQ0LjE2IDQ0LjE2eiBtMC02My4zNmMtMTAuMjQgMC0xOC41NiA4LjMyLTE4LjU2IDE4LjU2czguMzIgMTguNTYgMTguNTYgMTguNTZjMTAuMjQgMCAxOC41Ni04LjMyIDE4LjU2LTE4LjU2cy04LjMyLTE4LjU2LTE4LjU2LTE4LjU2ek02MzguNzIgMzUyLjY0Yy0yNC4zMiAwLTQ0LjE2LTE5Ljg0LTQ0LjE2LTQ0LjE2czE5Ljg0LTQ0LjE2IDQ0LjE2LTQ0LjE2YzI0LjMyIDAgNDQuMTYgMTkuODQgNDQuMTYgNDQuMTZzLTE5Ljg0IDQ0LjE2LTQ0LjE2IDQ0LjE2eiBtMC02My4zNmMtMTAuMjQgMC0xOC41NiA4LjMyLTE4LjU2IDE4LjU2czguMzIgMTguNTYgMTguNTYgMTguNTZjMTAuMjQgMCAxOC41Ni04LjMyIDE4LjU2LTE4LjU2cy04LjMyLTE4LjU2LTE4LjU2LTE4LjU2eiIgZmlsbD0iIzI5RTBGNiIgcC1pZD0iMjQyNyIvPjxwYXRoIGQ9Ik02MzguNzIgNDEwLjg4Yy03LjA0IDAtMTIuOC01Ljc2LTEyLjgtMTIuOFYzNDUuNmMwLTcuMDQgNS43Ni0xMi44IDEyLjgtMTIuOHMxMi44IDUuNzYgMTIuOCAxMi44djUzLjEyYzAgNy4wNC01Ljc2IDEyLjE2LTEyLjggMTIuMTZ6TTYzOC43MiAyODIuMjRjLTcuMDQgMC0xMi44LTUuNzYtMTIuOC0xMi44di01My4xMmMwLTcuMDQgNS43Ni0xMi44IDEyLjgtMTIuOHMxMi44IDUuNzYgMTIuOCAxMi44djUzLjEyYzAgNy4wNC01Ljc2IDEyLjgtMTIuOCAxMi44ek00NzguNzIgMzA4LjQ4YzAtNy4wNCA1Ljc2LTEyLjggMTIuOC0xMi44aDEwMy4wNGM3LjA0IDAgMTIuOCA1Ljc2IDEyLjggMTIuOHMtNS43NiAxMi44LTEyLjggMTIuOEg0OTEuNTJjLTcuMDQgMC0xMi44LTUuNzYtMTIuOC0xMi44ek00NTkuNTIgNDEwLjg4Yy03LjA0IDAtMTIuOC01Ljc2LTEyLjgtMTIuOFYzNDUuNmMwLTcuMDQgNS43Ni0xMi44IDEyLjgtMTIuOHMxMi44IDUuNzYgMTIuOCAxMi44djUzLjEyYzAgNy4wNC01Ljc2IDEyLjE2LTEyLjggMTIuMTZ6IiBmaWxsPSIjMjlFMEY2IiBwLWlkPSIyNDI4Ii8+PHBhdGggZD0iTTQ0Ni43MiAzOTguNzJjMC03LjA0IDUuNzYtMTIuOCAxMi44LTEyLjhoNDkuOTJjNy4wNCAwIDEyLjggNS43NiAxMi44IDEyLjhzLTUuNzYgMTIuOC0xMi44IDEyLjhoLTQ5LjkyYy03LjA0IDAtMTIuOC01Ljc2LTEyLjgtMTIuOHpNNjU3LjkyIDMwOC40OGMwLTcuMDQgNS43Ni0xMi44IDEyLjgtMTIuOGg4MC42NGM3LjA0IDAgMTIuOCA1Ljc2IDEyLjggMTIuOHMtNS43NiAxMi44LTEyLjggMTIuOGgtODAuNjRjLTcuMDQgMC0xMi44LTUuNzYtMTIuOC0xMi44eiIgZmlsbD0iIzI5RTBGNiIgcC1pZD0iMjQyOSIvPjxwYXRoIGQ9Ik01MTQuNTYgNDY0Yy03LjA0IDAtMTIuOC01Ljc2LTEyLjgtMTIuOHYtNTMuMTJjMC03LjA0IDUuNzYtMTIuOCAxMi44LTEyLjhzMTIuOCA1Ljc2IDEyLjggMTIuOHY1My4xMmMwIDcuMDQtNS43NiAxMi44LTEyLjggMTIuOHpNNTY4Ljk2IDIxNi4zMmMwLTcuMDQgNS43Ni0xMi44IDEyLjgtMTIuOGg1My4xMmM3LjA0IDAgMTIuOCA1Ljc2IDEyLjggMTIuOHMtNS43NiAxMi44LTEyLjggMTIuOGgtNTMuMTJjLTcuMDQgMC0xMi44LTUuNzYtMTIuOC0xMi44eiIgZmlsbD0iIzI5RTBGNiIgcC1pZD0iMjQzMCIvPjxwYXRoIGQ9Ik01ODEuNzYgMjI5Ljc2Yy03LjA0IDAtMTIuOC01Ljc2LTEyLjgtMTIuOHYtNDQuOGMwLTcuMDQgNS43Ni0xMi44IDEyLjgtMTIuOHMxMi44IDUuNzYgMTIuOCAxMi44djQ0LjhjMCA3LjA0LTUuNzYgMTIuOC0xMi44IDEyLjh6TTY1Ny45MiA0MzYuNDhjMC03LjA0IDUuNzYtMTIuOCAxMi44LTEyLjhoNTcuNmM3LjA0IDAgMTIuOCA1Ljc2IDEyLjggMTIuOHMtNS43NiAxMi44LTEyLjggMTIuOGgtNTcuNmMtNy4wNCAwLTEyLjgtNS43Ni0xMi44LTEyLjh6TTQ1Ni4zMiAyODkuMjhjLTcuMDQgMC0xMi44LTUuNzYtMTIuOC0xMi44VjIyNGMwLTcuMDQgNS43Ni0xMi44IDEyLjgtMTIuOHMxMi44IDUuNzYgMTIuOCAxMi44djUzLjEyYzAgNi40LTUuNzYgMTIuMTYtMTIuOCAxMi4xNnoiIGZpbGw9IiMyOUUwRjYiIHAtaWQ9IjI0MzEiLz48cGF0aCBkPSJNMzg2LjU2IDIyNGMwLTcuMDQgNS43Ni0xMi44IDEyLjgtMTIuOGg1My4xMmM3LjA0IDAgMTIuOCA1Ljc2IDEyLjggMTIuOHMtNS43NiAxMi44LTEyLjggMTIuOGgtNTMuMTJjLTcuMDQgMC0xMi44LTUuNzYtMTIuOC0xMi44eiIgZmlsbD0iIzI5RTBGNiIgcC1pZD0iMjQzMiIvPjxwYXRoIGQ9Ik0zNjkuOTIgMjY5LjQ0Yy0yNC4zMiAwLTQ0LjE2LTE5Ljg0LTQ0LjE2LTQ0LjE2czE5Ljg0LTQ0LjE2IDQ0LjE2LTQ0LjE2YzI0LjMyIDAgNDQuMTYgMTkuODQgNDQuMTYgNDQuMTZzLTE5Ljg0IDQ0LjE2LTQ0LjE2IDQ0LjE2eiBtMC02My4zNmMtMTAuMjQgMC0xOC41NiA4LjMyLTE4LjU2IDE4LjU2czguMzIgMTguNTYgMTguNTYgMTguNTZjMTAuMjQgMCAxOC41Ni04LjMyIDE4LjU2LTE4LjU2cy04LjMyLTE4LjU2LTE4LjU2LTE4LjU2ek02MTYuOTYgOTE4LjRjLTcuMDQgMC0xMi44LTUuNzYtMTIuOC0xMi44di0yMTMuNzZjMC03LjA0IDUuNzYtMTIuOCAxMi44LTEyLjhzMTIuOCA1Ljc2IDEyLjggMTIuOHYyMTMuNzZjMCA3LjA0LTUuNzYgMTIuOC0xMi44IDEyLjh6IiBmaWxsPSIjMjlFMEY2IiBwLWlkPSIyNDMzIi8+PC9zdmc+;fontFamily=Bahnschrift;" vertex="1" parent="1">
                    <mxGeometry x="277.12" y="576" width="51" height="51" as="geometry"/>
                </mxCell>
                <mxCell id="134" value="" style="shape=image;imageAspect=0;aspect=fixed;verticalLabelPosition=bottom;verticalAlign=top;image=data:image/svg+xml,PHN2ZyB4bWxucz0iaHR0cDovL3d3dy53My5vcmcvMjAwMC9zdmciIHhtbG5zOnhsaW5rPSJodHRwOi8vd3d3LnczLm9yZy8xOTk5L3hsaW5rIiB0PSIxNjU2MzM0ODg5ODczIiBjbGFzcz0iaWNvbiIgdmlld0JveD0iMCAwIDEwMjQgMTAyNCIgdmVyc2lvbj0iMS4xIiBwLWlkPSIyNDI0IiB3aWR0aD0iMjAwIiBoZWlnaHQ9IjIwMCI+PGRlZnM+PHN0eWxlIHR5cGU9InRleHQvY3NzIi8+PC9kZWZzPjxwYXRoIGQ9Ik0xNTEuNjggNTA4LjhMMTk0LjU2IDYwOGw0Mi44OCAxMjQuOCAzMC4wOCA1Ni45NiA1Mi40OCAxMS41MiAxMDAuNDgtNDkuOTIgMjQuOTYtMTQuNzItMS45MiAxNzAuODggMjM2LjE2IDYuNCAxMi4xNi03NS41MiA4Ljk2LTY1LjI4IDQyLjg4LTE0My4zNiA0OS45Mi0xMDAuNDggMzYuNDgtNzUuNTIgMTIuMTYtNzEuNjgtNC40OC02Mi43Mi0yMy42OC02OC40OC00Ni4wOC02My4zNi02Mi43Mi00Ni43Mi0xMjEuNi0zMy4yOEg0NzguMDhsLTExMC4wOCAyMS4xMi05NC43MiA2Ny4yLTQ3LjM2IDcyLjMyLTE5Ljg0IDY3LjItMTIuMTYgNjcuMi0xMC44OCA0OC0zNC41NiA0MC4zMnoiIGZpbGw9IiMxMjk3QjUiIHAtaWQ9IjI0MjUiLz48cGF0aCBkPSJNNjg5LjI4IDkyNi43Mkg0MzkuMDRjLTcuMDQgMC0xMi44LTUuNzYtMTIuOC0xMi44di0xNjMuODRjMC03LjA0IDUuNzYtMTIuOCAxMi44LTEyLjhzMTIuOCA1Ljc2IDEyLjggMTIuOHYxNTEuMDRoMjI0LjY0di00LjQ4YzAtMTMxLjg0IDQwLjMyLTI2Ni44OCAxMTUuODQtMzkwLjQgMTcuMjgtMjguMTYgMjguOC01OS41MiAzMy45Mi05Mi4xNiAxMi4xNi03NS41Mi03LjY4LTE0Ny44NC01NS4wNC0yMDMuNTItNDguNjQtNTcuNi0xMjIuODgtOTAuMjQtMjAzLjUyLTkwLjI0aC04OS42Yy00Mi4yNCAwLTgwLjY0IDguMzItMTE1LjIgMjQuOTYtOTAuODggNDQuMTYtMTQ3LjIgMTMzLjEyLTE0Ny4yIDIzMy42IDAgNDgtMjEuNzYgOTIuOC01OC44OCAxMjIuODhsLTEuOTIgMS4yOGMzNC41NiA1Ny42IDYyLjcyIDExOS42OCA4My4yIDE4NC45Nmw5LjYgMzMuMjhjMC42NCAyLjU2IDEuOTIgNS43NiAyLjU2IDguMzJsNC40OCAxNi42NGM0LjQ4IDE3LjI4IDE1LjM2IDMxLjM2IDI5LjQ0IDM4LjQgMTYgNy42OCAzNC41NiA3LjA0IDQ5LjkyLTEuMjggNi40LTMuMiAxNC4wOC0xLjI4IDE3LjI4IDUuMTJzMS4yOCAxNC4wOC01LjEyIDE3LjI4Yy0yMi40IDEyLjE2LTQ5LjkyIDEyLjgtNzMuNiAxLjI4LTIxLjEyLTEwLjI0LTM2LjQ4LTMwLjA4LTQyLjg4LTU1LjA0bC00LjQ4LTE2LjY0LTEuOTItNy42OC05LjYtMzIuNjRDMTkyIDYyOC40OCAxNjMuMiA1NjUuMTIgMTI2LjcyIDUwNi4yNGMtMy4yLTUuNzYtMS45Mi0xMi44IDMuMi0xNi42NGwxMC44OC04LjMyYzMxLjM2LTI0Ljk2IDQ5LjI4LTYyLjcyIDQ5LjI4LTEwMy4wNCAwLTExMC4wOCA2Mi4wOC0yMDggMTYxLjkyLTI1Ni42NCAzNy43Ni0xNy45MiA4MC0yNy41MiAxMjYuMDgtMjcuNTJoOTAuMjRjODguMzIgMCAxNjkuNiAzNS44NCAyMjMuMzYgOTkuMiA1Mi40OCA2MS40NCA3My42IDE0MC44IDYwLjggMjI0LTUuNzYgMzYuNDgtMTguNTYgNzAuNC0zNy4xMiAxMDEuNzYtNzMuNiAxMTkuNjgtMTEyIDI0OS42LTExMiAzNzYuOTZ2MTcuMjhjLTEuMjggNy42OC03LjA0IDEzLjQ0LTE0LjA4IDEzLjQ0eiIgZmlsbD0iIzI5RTBGNiIgcC1pZD0iMjQyNiIvPjxwYXRoIGQ9Ik0zMzkuMiA4MDcuMDRjLTQuNDggMC04Ljk2LTIuNTYtMTEuNTItNi40LTMuMi02LjQtMS4yOC0xNC4wOCA1LjEyLTE3LjI4bDE1MS4wNC04MS45MmM2LjQtMy4yIDE0LjA4LTEuMjggMTcuMjggNS4xMnMxLjI4IDE0LjA4LTUuMTIgMTcuMjhMMzQ1LjYgODA1Ljc2Yy0xLjkyIDEuMjgtNC40OCAxLjI4LTYuNCAxLjI4ek0zMDcuMiA0MjIuNGgtNDQuOGMtNy4wNCAwLTEyLjgtNS43Ni0xMi44LTEyLjhzNS43Ni0xMi44IDEyLjgtMTIuOGg0NC44YzcuMDQgMCAxMi44IDUuNzYgMTIuOCAxMi44cy01Ljc2IDEyLjgtMTIuOCAxMi44ek0yNjguOCA2ODQuOGgtNDQuOGMtNy4wNCAwLTEyLjgtNS43Ni0xMi44LTEyLjhzNS43Ni0xMi44IDEyLjgtMTIuOGg0NC44YzcuMDQgMCAxMi44IDUuNzYgMTIuOCAxMi44cy01Ljc2IDEyLjgtMTIuOCAxMi44ek00NTkuNTIgMzUyLjY0Yy0yNC4zMiAwLTQ0LjE2LTE5Ljg0LTQ0LjE2LTQ0LjE2czE5Ljg0LTQ0LjE2IDQ0LjE2LTQ0LjE2YzI0LjMyIDAgNDQuMTYgMTkuODQgNDQuMTYgNDQuMTZzLTE5Ljg0IDQ0LjE2LTQ0LjE2IDQ0LjE2eiBtMC02My4zNmMtMTAuMjQgMC0xOC41NiA4LjMyLTE4LjU2IDE4LjU2czguMzIgMTguNTYgMTguNTYgMTguNTZjMTAuMjQgMCAxOC41Ni04LjMyIDE4LjU2LTE4LjU2cy04LjMyLTE4LjU2LTE4LjU2LTE4LjU2ek02MzguNzIgNDgwLjY0Yy0yNC4zMiAwLTQ0LjE2LTE5Ljg0LTQ0LjE2LTQ0LjE2czE5Ljg0LTQ0LjE2IDQ0LjE2LTQ0LjE2YzI0LjMyIDAgNDQuMTYgMTkuODQgNDQuMTYgNDQuMTZzLTE5Ljg0IDQ0LjE2LTQ0LjE2IDQ0LjE2eiBtMC02My4zNmMtMTAuMjQgMC0xOC41NiA4LjMyLTE4LjU2IDE4LjU2czguMzIgMTguNTYgMTguNTYgMTguNTZjMTAuMjQgMCAxOC41Ni04LjMyIDE4LjU2LTE4LjU2cy04LjMyLTE4LjU2LTE4LjU2LTE4LjU2ek02MzguNzIgMzUyLjY0Yy0yNC4zMiAwLTQ0LjE2LTE5Ljg0LTQ0LjE2LTQ0LjE2czE5Ljg0LTQ0LjE2IDQ0LjE2LTQ0LjE2YzI0LjMyIDAgNDQuMTYgMTkuODQgNDQuMTYgNDQuMTZzLTE5Ljg0IDQ0LjE2LTQ0LjE2IDQ0LjE2eiBtMC02My4zNmMtMTAuMjQgMC0xOC41NiA4LjMyLTE4LjU2IDE4LjU2czguMzIgMTguNTYgMTguNTYgMTguNTZjMTAuMjQgMCAxOC41Ni04LjMyIDE4LjU2LTE4LjU2cy04LjMyLTE4LjU2LTE4LjU2LTE4LjU2eiIgZmlsbD0iIzI5RTBGNiIgcC1pZD0iMjQyNyIvPjxwYXRoIGQ9Ik02MzguNzIgNDEwLjg4Yy03LjA0IDAtMTIuOC01Ljc2LTEyLjgtMTIuOFYzNDUuNmMwLTcuMDQgNS43Ni0xMi44IDEyLjgtMTIuOHMxMi44IDUuNzYgMTIuOCAxMi44djUzLjEyYzAgNy4wNC01Ljc2IDEyLjE2LTEyLjggMTIuMTZ6TTYzOC43MiAyODIuMjRjLTcuMDQgMC0xMi44LTUuNzYtMTIuOC0xMi44di01My4xMmMwLTcuMDQgNS43Ni0xMi44IDEyLjgtMTIuOHMxMi44IDUuNzYgMTIuOCAxMi44djUzLjEyYzAgNy4wNC01Ljc2IDEyLjgtMTIuOCAxMi44ek00NzguNzIgMzA4LjQ4YzAtNy4wNCA1Ljc2LTEyLjggMTIuOC0xMi44aDEwMy4wNGM3LjA0IDAgMTIuOCA1Ljc2IDEyLjggMTIuOHMtNS43NiAxMi44LTEyLjggMTIuOEg0OTEuNTJjLTcuMDQgMC0xMi44LTUuNzYtMTIuOC0xMi44ek00NTkuNTIgNDEwLjg4Yy03LjA0IDAtMTIuOC01Ljc2LTEyLjgtMTIuOFYzNDUuNmMwLTcuMDQgNS43Ni0xMi44IDEyLjgtMTIuOHMxMi44IDUuNzYgMTIuOCAxMi44djUzLjEyYzAgNy4wNC01Ljc2IDEyLjE2LTEyLjggMTIuMTZ6IiBmaWxsPSIjMjlFMEY2IiBwLWlkPSIyNDI4Ii8+PHBhdGggZD0iTTQ0Ni43MiAzOTguNzJjMC03LjA0IDUuNzYtMTIuOCAxMi44LTEyLjhoNDkuOTJjNy4wNCAwIDEyLjggNS43NiAxMi44IDEyLjhzLTUuNzYgMTIuOC0xMi44IDEyLjhoLTQ5LjkyYy03LjA0IDAtMTIuOC01Ljc2LTEyLjgtMTIuOHpNNjU3LjkyIDMwOC40OGMwLTcuMDQgNS43Ni0xMi44IDEyLjgtMTIuOGg4MC42NGM3LjA0IDAgMTIuOCA1Ljc2IDEyLjggMTIuOHMtNS43NiAxMi44LTEyLjggMTIuOGgtODAuNjRjLTcuMDQgMC0xMi44LTUuNzYtMTIuOC0xMi44eiIgZmlsbD0iIzI5RTBGNiIgcC1pZD0iMjQyOSIvPjxwYXRoIGQ9Ik01MTQuNTYgNDY0Yy03LjA0IDAtMTIuOC01Ljc2LTEyLjgtMTIuOHYtNTMuMTJjMC03LjA0IDUuNzYtMTIuOCAxMi44LTEyLjhzMTIuOCA1Ljc2IDEyLjggMTIuOHY1My4xMmMwIDcuMDQtNS43NiAxMi44LTEyLjggMTIuOHpNNTY4Ljk2IDIxNi4zMmMwLTcuMDQgNS43Ni0xMi44IDEyLjgtMTIuOGg1My4xMmM3LjA0IDAgMTIuOCA1Ljc2IDEyLjggMTIuOHMtNS43NiAxMi44LTEyLjggMTIuOGgtNTMuMTJjLTcuMDQgMC0xMi44LTUuNzYtMTIuOC0xMi44eiIgZmlsbD0iIzI5RTBGNiIgcC1pZD0iMjQzMCIvPjxwYXRoIGQ9Ik01ODEuNzYgMjI5Ljc2Yy03LjA0IDAtMTIuOC01Ljc2LTEyLjgtMTIuOHYtNDQuOGMwLTcuMDQgNS43Ni0xMi44IDEyLjgtMTIuOHMxMi44IDUuNzYgMTIuOCAxMi44djQ0LjhjMCA3LjA0LTUuNzYgMTIuOC0xMi44IDEyLjh6TTY1Ny45MiA0MzYuNDhjMC03LjA0IDUuNzYtMTIuOCAxMi44LTEyLjhoNTcuNmM3LjA0IDAgMTIuOCA1Ljc2IDEyLjggMTIuOHMtNS43NiAxMi44LTEyLjggMTIuOGgtNTcuNmMtNy4wNCAwLTEyLjgtNS43Ni0xMi44LTEyLjh6TTQ1Ni4zMiAyODkuMjhjLTcuMDQgMC0xMi44LTUuNzYtMTIuOC0xMi44VjIyNGMwLTcuMDQgNS43Ni0xMi44IDEyLjgtMTIuOHMxMi44IDUuNzYgMTIuOCAxMi44djUzLjEyYzAgNi40LTUuNzYgMTIuMTYtMTIuOCAxMi4xNnoiIGZpbGw9IiMyOUUwRjYiIHAtaWQ9IjI0MzEiLz48cGF0aCBkPSJNMzg2LjU2IDIyNGMwLTcuMDQgNS43Ni0xMi44IDEyLjgtMTIuOGg1My4xMmM3LjA0IDAgMTIuOCA1Ljc2IDEyLjggMTIuOHMtNS43NiAxMi44LTEyLjggMTIuOGgtNTMuMTJjLTcuMDQgMC0xMi44LTUuNzYtMTIuOC0xMi44eiIgZmlsbD0iIzI5RTBGNiIgcC1pZD0iMjQzMiIvPjxwYXRoIGQ9Ik0zNjkuOTIgMjY5LjQ0Yy0yNC4zMiAwLTQ0LjE2LTE5Ljg0LTQ0LjE2LTQ0LjE2czE5Ljg0LTQ0LjE2IDQ0LjE2LTQ0LjE2YzI0LjMyIDAgNDQuMTYgMTkuODQgNDQuMTYgNDQuMTZzLTE5Ljg0IDQ0LjE2LTQ0LjE2IDQ0LjE2eiBtMC02My4zNmMtMTAuMjQgMC0xOC41NiA4LjMyLTE4LjU2IDE4LjU2czguMzIgMTguNTYgMTguNTYgMTguNTZjMTAuMjQgMCAxOC41Ni04LjMyIDE4LjU2LTE4LjU2cy04LjMyLTE4LjU2LTE4LjU2LTE4LjU2ek02MTYuOTYgOTE4LjRjLTcuMDQgMC0xMi44LTUuNzYtMTIuOC0xMi44di0yMTMuNzZjMC03LjA0IDUuNzYtMTIuOCAxMi44LTEyLjhzMTIuOCA1Ljc2IDEyLjggMTIuOHYyMTMuNzZjMCA3LjA0LTUuNzYgMTIuOC0xMi44IDEyLjh6IiBmaWxsPSIjMjlFMEY2IiBwLWlkPSIyNDMzIi8+PC9zdmc+;fontFamily=Bahnschrift;" vertex="1" parent="1">
                    <mxGeometry x="509.12" y="576.5" width="51" height="51" as="geometry"/>
                </mxCell>
                <mxCell id="144" value="" style="shape=flexArrow;endArrow=classic;html=1;fontSize=12;fillColor=#dae8fc;strokeColor=#6c8ebf;fontFamily=Bahnschrift;" edge="1" parent="1">
                    <mxGeometry width="50" height="50" relative="1" as="geometry">
                        <mxPoint x="453.12" y="437" as="sourcePoint"/>
                        <mxPoint x="373.12" y="437" as="targetPoint"/>
                        <Array as="points"/>
                    </mxGeometry>
                </mxCell>
                <mxCell id="151" value="feedback" style="edgeLabel;html=1;align=center;verticalAlign=middle;resizable=0;points=[];labelBackgroundColor=none;fontFamily=Bahnschrift;" vertex="1" connectable="0" parent="144">
                    <mxGeometry x="-0.2378" relative="1" as="geometry">
                        <mxPoint as="offset"/>
                    </mxGeometry>
                </mxCell>
                <mxCell id="146" value="" style="shape=flexArrow;endArrow=classic;html=1;fontSize=12;fillColor=#dae8fc;strokeColor=#6c8ebf;fontFamily=Bahnschrift;" edge="1" parent="1">
                    <mxGeometry width="50" height="50" relative="1" as="geometry">
                        <mxPoint x="248.25" y="441" as="sourcePoint"/>
                        <mxPoint x="173.12" y="441" as="targetPoint"/>
                    </mxGeometry>
                </mxCell>
                <mxCell id="152" value="feedback" style="edgeLabel;html=1;align=center;verticalAlign=middle;resizable=0;points=[];labelBackgroundColor=none;fontFamily=Bahnschrift;" vertex="1" connectable="0" parent="146">
                    <mxGeometry x="-0.2339" relative="1" as="geometry">
                        <mxPoint as="offset"/>
                    </mxGeometry>
                </mxCell>
                <mxCell id="147" value="" style="shape=flexArrow;endArrow=classic;html=1;fontSize=12;fillColor=#f8cecc;strokeColor=#b85450;fontFamily=Bahnschrift;" edge="1" parent="1">
                    <mxGeometry width="50" height="50" relative="1" as="geometry">
                        <mxPoint x="178.12" y="477" as="sourcePoint"/>
                        <mxPoint x="248.25" y="477" as="targetPoint"/>
                    </mxGeometry>
                </mxCell>
                <mxCell id="148" value="adapt" style="edgeLabel;html=1;align=center;verticalAlign=middle;resizable=0;points=[];fontSize=12;labelBackgroundColor=none;fontFamily=Bahnschrift;" vertex="1" connectable="0" parent="147">
                    <mxGeometry x="-0.3448" y="-1" relative="1" as="geometry">
                        <mxPoint as="offset"/>
                    </mxGeometry>
                </mxCell>
                <mxCell id="149" value="" style="shape=flexArrow;endArrow=classic;html=1;fontSize=12;fillColor=#f8cecc;strokeColor=#b85450;fontFamily=Bahnschrift;" edge="1" parent="1">
                    <mxGeometry width="50" height="50" relative="1" as="geometry">
                        <mxPoint x="382.99" y="477" as="sourcePoint"/>
                        <mxPoint x="453.1200000000001" y="477" as="targetPoint"/>
                    </mxGeometry>
                </mxCell>
                <mxCell id="150" value="adapt" style="edgeLabel;html=1;align=center;verticalAlign=middle;resizable=0;points=[];fontSize=12;labelBackgroundColor=none;fontFamily=Bahnschrift;" vertex="1" connectable="0" parent="149">
                    <mxGeometry x="-0.3448" y="-1" relative="1" as="geometry">
                        <mxPoint as="offset"/>
                    </mxGeometry>
                </mxCell>
            </root>
        </mxGraphModel>
    </diagram>
</mxfile>